<svg width="97" height="97" viewBox="0 0 97 97" fill="none" xmlns="http://www.w3.org/2000/svg">
<path fill-rule="evenodd" clip-rule="evenodd" d="M48.4977 4.09419C44.2374 4.09419 40.1515 5.7866 37.139 8.79911C34.1265 11.8116 32.4341 15.8975 32.4341 20.1578C32.4341 24.4181 34.1265 28.504 37.139 31.5165C40.1515 34.529 44.2374 36.2214 48.4977 36.2214C52.7586 36.2214 56.8449 34.5288 59.8578 31.5159C62.8707 28.503 64.5633 24.4166 64.5633 20.1558C64.5633 15.8949 62.8707 11.8086 59.8578 8.79566C56.8449 5.78277 52.7586 4.09015 48.4977 4.09015V4.09419ZM92.9035 48.5C92.9035 44.2402 91.2113 40.1549 88.1992 37.1427C85.1871 34.1306 81.1017 32.4384 76.8419 32.4384C72.5821 32.4384 68.4968 34.1306 65.4847 37.1427C62.4725 40.1549 60.7803 44.2402 60.7803 48.5C60.7803 52.7598 62.4725 56.8451 65.4847 59.8572C68.4968 62.8694 72.5821 64.5616 76.8419 64.5616C81.1017 64.5616 85.1871 62.8694 88.1992 59.8572C91.2113 56.8451 92.9035 52.7598 92.9035 48.5ZM48.4977 60.7826C44.2379 60.7826 40.1526 62.4748 37.1405 65.4869C34.1283 68.4991 32.4361 72.5844 32.4361 76.8442C32.4361 81.104 34.1283 85.1893 37.1405 88.2014C40.1526 91.2136 44.2379 92.9058 48.4977 92.9058C52.7575 92.9058 56.8428 91.2136 59.855 88.2014C62.8671 85.1893 64.5593 81.104 64.5593 76.8442C64.5593 72.5844 62.8671 68.4991 59.855 65.4869C56.8428 62.4748 52.7575 60.7826 48.4977 60.7826ZM36.2191 48.5C36.2191 44.2391 34.5265 40.1528 31.5136 37.1399C28.5007 34.127 24.4144 32.4344 20.1535 32.4344C15.8926 32.4344 11.8063 34.127 8.7934 37.1399C5.78051 40.1528 4.08789 44.2391 4.08789 48.5C4.08789 52.7608 5.78051 56.8472 8.7934 59.8601C11.8063 62.873 15.8926 64.5656 20.1535 64.5656C24.4144 64.5656 28.5007 62.873 31.5136 59.8601C34.5265 56.8472 36.2191 52.7608 36.2191 48.5Z" fill="url(#paint0_linear_8014_2533)"/>
<defs>
<linearGradient id="paint0_linear_8014_2533" x1="48.4957" y1="4.09015" x2="48.4957" y2="92.9058" gradientUnits="userSpaceOnUse">
<stop stop-color="#FFB300"/>
<stop offset="1" stop-color="#FFE7AF"/>
</linearGradient>
</defs>
</svg>
