<svg width="15" height="9" viewBox="0 0 15 9" fill="none" xmlns="http://www.w3.org/2000/svg">
<path d="M7.75192 8.72681C7.8355 8.7269 7.91827 8.70969 7.99548 8.67616C8.07269 8.64264 8.14282 8.59347 8.20183 8.53147L14.5655 1.86484C14.8141 1.60434 14.8141 1.18251 14.5655 0.922181C14.3168 0.661849 13.9141 0.661682 13.6656 0.922181L7.75192 7.11748L1.83821 0.922179C1.58955 0.661681 1.18689 0.661681 0.938388 0.922179C0.689888 1.18268 0.68973 1.60451 0.938388 1.86484L7.30201 8.53147C7.36103 8.59347 7.43116 8.64264 7.50837 8.67616C7.58558 8.70969 7.66835 8.7269 7.75192 8.72681Z" fill="white"/>
</svg>
