<svg width="41" height="41" viewBox="0 0 41 41" fill="none" xmlns="http://www.w3.org/2000/svg">
<rect x="0.685059" y="0.927002" width="40" height="40" rx="11.4721" fill="white"/>
<g clip-path="url(#clip0_138_2654)">
<path d="M18.2213 19.2096C18.9674 19.2096 19.6967 18.9884 20.3171 18.5739C20.9374 18.1594 21.4209 17.5703 21.7064 16.881C21.9919 16.1917 22.0666 15.4333 21.9211 14.7016C21.7755 13.9698 21.4163 13.2977 20.8887 12.7701C20.3612 12.2426 19.689 11.8833 18.9573 11.7378C18.2256 11.5922 17.4671 11.6669 16.7778 11.9524C16.0885 12.2379 15.4994 12.7214 15.0849 13.3418C14.6704 13.9621 14.4492 14.6914 14.4492 15.4375C14.4503 16.4376 14.8481 17.3964 15.5553 18.1036C16.2625 18.8107 17.2213 19.2085 18.2213 19.2096ZM18.2213 12.2513C18.8515 12.2513 19.4675 12.4381 19.9915 12.7882C20.5155 13.1383 20.9239 13.6359 21.1651 14.2182C21.4062 14.8004 21.4693 15.441 21.3464 16.0591C21.2235 16.6771 20.92 17.2449 20.4744 17.6905C20.0288 18.1361 19.4611 18.4396 18.843 18.5625C18.2249 18.6855 17.5843 18.6224 17.0021 18.3812C16.4199 18.14 15.9222 17.7317 15.5721 17.2077C15.222 16.6837 15.0352 16.0677 15.0352 15.4375C15.0361 14.5928 15.3721 13.7829 15.9694 13.1856C16.5667 12.5882 17.3766 12.2522 18.2213 12.2513Z" fill="#FFB300"/>
<path d="M18.2212 17.0617C18.06 17.0615 17.9054 16.9974 17.7914 16.8834C17.6775 16.7694 17.6133 16.6149 17.6131 16.4537C17.6131 16.376 17.5823 16.3014 17.5273 16.2465C17.4724 16.1916 17.3979 16.1607 17.3202 16.1607C17.2425 16.1607 17.1679 16.1916 17.113 16.2465C17.0581 16.3014 17.0272 16.376 17.0272 16.4537C17.0276 16.7232 17.119 16.9847 17.2866 17.1958C17.4542 17.4068 17.6883 17.5551 17.9507 17.6165V17.8997C17.9507 17.9774 17.9816 18.0519 18.0365 18.1068C18.0915 18.1618 18.166 18.1926 18.2437 18.1926C18.3214 18.1926 18.3959 18.1618 18.4509 18.1068C18.5058 18.0519 18.5367 17.9774 18.5367 17.8997V17.605C18.8155 17.5287 19.0572 17.3538 19.2168 17.1127C19.3764 16.8717 19.4431 16.5809 19.4046 16.2944C19.366 16.0079 19.2248 15.7451 19.0072 15.5548C18.7896 15.3645 18.5103 15.2597 18.2212 15.2597C18.1009 15.2597 17.9834 15.2241 17.8834 15.1572C17.7834 15.0904 17.7054 14.9955 17.6594 14.8844C17.6134 14.7732 17.6014 14.651 17.6248 14.533C17.6483 14.4151 17.7062 14.3067 17.7912 14.2217C17.8763 14.1367 17.9846 14.0787 18.1026 14.0553C18.2205 14.0318 18.3428 14.0439 18.4539 14.0899C18.565 14.1359 18.66 14.2138 18.7268 14.3138C18.7936 14.4138 18.8292 14.5314 18.8292 14.6517C18.8292 14.7294 18.8601 14.8039 18.9151 14.8588C18.97 14.9138 19.0445 14.9446 19.1222 14.9446C19.1999 14.9446 19.2744 14.9138 19.3294 14.8588C19.3843 14.8039 19.4152 14.7294 19.4152 14.6517C19.4148 14.3729 19.317 14.1031 19.1388 13.8887C18.9605 13.6744 18.713 13.5291 18.439 13.4779V13.261C18.439 13.1833 18.4081 13.1088 18.3532 13.0538C18.2983 12.9989 18.2237 12.968 18.146 12.968C18.0683 12.968 17.9938 12.9989 17.9389 13.0538C17.8839 13.1088 17.8531 13.1833 17.8531 13.261V13.516C17.5825 13.6036 17.3522 13.7849 17.2034 14.0273C17.0547 14.2697 16.9974 14.5572 17.0417 14.8381C17.0861 15.119 17.2293 15.3748 17.4455 15.5595C17.6618 15.7442 17.9368 15.8457 18.2212 15.8457C18.3015 15.8449 18.3812 15.8601 18.4556 15.8904C18.53 15.9206 18.5976 15.9653 18.6547 16.0218C18.7117 16.0783 18.757 16.1456 18.7879 16.2197C18.8188 16.2939 18.8347 16.3734 18.8347 16.4537C18.8347 16.534 18.8188 16.6135 18.7879 16.6876C18.757 16.7618 18.7117 16.829 18.6547 16.8856C18.5976 16.9421 18.53 16.9868 18.4556 17.017C18.3812 17.0472 18.3015 17.0624 18.2212 17.0617ZM12.481 21.6106H24.0532C24.1309 21.6106 24.2054 21.5797 24.2604 21.5248C24.3153 21.4698 24.3462 21.3953 24.3462 21.3176C24.3462 21.2399 24.3153 21.1654 24.2604 21.1105C24.2054 21.0555 24.1309 21.0247 24.0532 21.0247H12.481C12.4033 21.0247 12.3287 21.0555 12.2738 21.1105C12.2189 21.1654 12.188 21.2399 12.188 21.3176C12.188 21.3953 12.2189 21.4698 12.2738 21.5248C12.3287 21.5797 12.4033 21.6106 12.481 21.6106Z" fill="#FFB300"/>
<path d="M26.3003 22.8369V14.0422H30.3091C30.3871 14.0404 30.4611 14.0077 30.5151 13.9515C30.5691 13.8952 30.5986 13.8199 30.5972 13.7419V11.2788C30.5972 9.93418 29.5053 8.81763 28.1617 8.81763H12.6794C11.3882 8.81763 10.3374 9.8689 10.3374 11.1445L10.2349 30.0762C10.2344 30.1551 10.265 30.2309 10.3201 30.2874C10.3473 30.315 10.3796 30.3369 10.4152 30.352C10.4508 30.3671 10.4891 30.375 10.5278 30.3753C10.5278 30.3753 17.0122 30.3769 21.5869 30.3769C22.0149 31.1539 22.6386 31.8056 23.396 32.2673C24.1534 32.729 25.0184 32.9848 25.9051 33.0093C26.7919 33.0338 27.6696 32.8261 28.4514 32.4069C29.2332 31.9876 29.8918 31.3713 30.362 30.6191C30.8322 29.8669 31.0977 29.0049 31.1321 28.1185C31.1666 27.2321 30.9688 26.352 30.5583 25.5656C30.1479 24.7792 29.5391 24.1137 28.7922 23.6351C28.0453 23.1564 27.1863 22.8813 26.3003 22.8369ZM28.1579 9.40356H28.1612C29.1826 9.40356 30.0113 10.2581 30.0113 11.2793V13.4563H26.3003V11.2859C26.3003 10.2629 27.1281 9.45239 28.1504 9.40356H28.1579ZM10.8224 29.7909L10.9233 11.1461C10.9268 10.6827 11.1134 10.2395 11.4423 9.91303C11.7713 9.58659 12.216 9.40346 12.6794 9.40356H26.57C26.0451 9.89185 25.7144 10.5434 25.7144 11.2864V22.8416C25.2384 22.8755 24.7697 22.9768 24.3221 23.1423C24.2986 23.0914 24.2604 23.0485 24.2125 23.0193C24.1646 22.99 24.1091 22.9755 24.053 22.9778H12.481C12.4033 22.9778 12.3287 23.0087 12.2738 23.0636C12.2189 23.1185 12.188 23.1931 12.188 23.2708C12.188 23.3485 12.2189 23.423 12.2738 23.4779C12.3287 23.5329 12.4033 23.5637 12.481 23.5637H23.4537C22.8545 23.9007 22.3386 24.3679 21.9441 24.9309H12.481C12.4033 24.9309 12.3287 24.9618 12.2738 25.0167C12.2189 25.0717 12.188 25.1462 12.188 25.2239C12.188 25.3016 12.2189 25.3761 12.2738 25.431C12.3287 25.486 12.4033 25.5168 12.481 25.5168H21.5706C21.3401 25.9075 21.1682 26.3958 21.0651 26.884H12.481C12.4425 26.884 12.4044 26.8916 12.3688 26.9063C12.3333 26.9211 12.301 26.9426 12.2738 26.9698C12.2466 26.997 12.225 27.0293 12.2103 27.0649C12.1956 27.1004 12.188 27.1385 12.188 27.177C12.188 27.2155 12.1956 27.2536 12.2103 27.2891C12.225 27.3247 12.2466 27.357 12.2738 27.3842C12.301 27.4114 12.3333 27.4329 12.3688 27.4477C12.4044 27.4624 12.4425 27.47 12.481 27.47H20.976C20.9614 27.6165 20.9538 27.7727 20.9538 27.9327C20.9531 28.5713 21.0739 29.2041 21.3098 29.7975C17.3432 29.7974 12.1083 29.7911 10.8224 29.7909ZM26.0445 32.426C25.2237 32.4265 24.4184 32.2025 23.7157 31.7784C23.0129 31.3542 22.4395 30.7461 22.0574 30.0196C21.6752 29.2932 21.499 28.4761 21.5476 27.6567C21.5963 26.8373 21.868 26.0468 22.3334 25.3707C22.3357 25.3675 22.3379 25.3643 22.3401 25.3609C22.7809 24.7233 23.3788 24.2101 24.0759 23.8712C24.7731 23.5323 25.5459 23.379 26.3196 23.4262C27.0933 23.4734 27.8418 23.7195 28.4926 24.1407C29.1433 24.5618 29.6744 25.1439 30.0343 25.8304C30.3943 26.5169 30.571 27.2847 30.5473 28.0595C30.5236 28.8343 30.3004 29.5899 29.8992 30.2532C29.4979 30.9164 28.9323 31.4649 28.2571 31.8456C27.5818 32.2262 26.8197 32.4262 26.0445 32.426Z" fill="#FFB300"/>
<path d="M27.5088 26.643L25.5744 28.5773L24.5809 27.574C24.5261 27.5193 24.4519 27.4886 24.3745 27.4885C24.2972 27.4883 24.2229 27.5188 24.1679 27.5733C24.1129 27.6277 24.0817 27.7017 24.0811 27.7791C24.0804 27.8564 24.1104 27.9309 24.1645 27.9862L25.3652 29.1943C25.3926 29.2212 25.425 29.2423 25.4606 29.2564C25.4962 29.2705 25.5343 29.2775 25.5726 29.2767H25.5733C25.6115 29.2775 25.6495 29.2707 25.685 29.2568C25.7206 29.2428 25.753 29.2219 25.7804 29.1954L27.9231 27.055C27.9504 27.0279 27.9721 26.9956 27.9869 26.96C28.0016 26.9245 28.0093 26.8864 28.0093 26.8479C28.0093 26.8094 28.0016 26.7712 27.9869 26.7357C27.9721 26.7001 27.9504 26.6678 27.9231 26.6407C27.8958 26.6135 27.8634 26.5921 27.8278 26.5775C27.7922 26.5629 27.754 26.5555 27.7155 26.5557C27.677 26.5559 27.6389 26.5637 27.6034 26.5787C27.568 26.5936 27.5358 26.6155 27.5088 26.6429V26.643Z" fill="#FFB300"/>
</g>
<defs>
<clipPath id="clip0_138_2654">
<rect width="25" height="25" fill="white" transform="translate(8.18506 8.427)"/>
</clipPath>
</defs>
</svg>
