<svg width="71" height="71" viewBox="0 0 71 71" fill="none" xmlns="http://www.w3.org/2000/svg">
<rect x="0.25" y="0.499969" width="70" height="70.0001" rx="10" fill="#FFB300"/>
<path d="M50.1881 21.1818H24.1137V21.4101L23.7874 20.2916C23.3943 18.9422 22.1383 18 20.733 18H18.5455C18.1059 18 17.7501 18.3558 17.7501 18.7955C17.7501 19.2352 18.1059 19.591 18.5455 19.591H20.733C21.436 19.591 22.0637 20.0617 22.2602 20.7368L27.2116 37.7124L24.6745 40.8833C24.312 41.338 24.1143 41.9021 24.1137 42.4835C24.1137 43.8966 25.2625 45.0454 26.6756 45.0454H48.7727C48.8772 45.0455 48.9807 45.025 49.0772 44.985C49.1738 44.9451 49.2615 44.8865 49.3354 44.8126C49.4093 44.7387 49.4679 44.651 49.5078 44.5545C49.5478 44.4579 49.5683 44.3544 49.5682 44.25C49.5683 44.1455 49.5478 44.042 49.5078 43.9455C49.4679 43.8489 49.4093 43.7612 49.3354 43.6873C49.2615 43.6134 49.1738 43.5548 49.0772 43.5149C48.9807 43.4749 48.8772 43.4544 48.7727 43.4545H26.6756C26.1404 43.4545 25.7045 43.0187 25.7045 42.4835C25.7045 42.2636 25.7799 42.0476 25.9174 41.8768L28.4737 38.6818H44.0761C45.3027 38.6818 46.4329 37.9647 46.9558 36.8547L52.5069 25.0589C52.6664 24.7176 52.7494 24.3456 52.75 23.969V23.7437C52.75 22.3307 51.6011 21.1818 50.1881 21.1818ZM51.1591 23.969C51.1591 24.1112 51.1273 24.2541 51.0666 24.3823L45.5163 36.1774C45.2546 36.732 44.6898 37.0909 44.0761 37.0909H28.6876L24.5111 22.7727H50.1881C50.7233 22.7727 51.1591 23.2085 51.1591 23.7437V23.969ZM27.2955 46.6363C25.5407 46.6363 24.1137 48.0633 24.1137 49.8182C24.1137 51.573 25.5406 53 27.2955 53C29.0504 53 30.4773 51.573 30.4773 49.8182C30.4773 48.0633 29.0503 46.6363 27.2955 46.6363ZM27.2955 51.409C26.4185 51.409 25.7046 50.6951 25.7046 49.8182C25.7046 48.9412 26.4185 48.2273 27.2955 48.2273C28.1725 48.2273 28.8864 48.9412 28.8864 49.8182C28.8864 50.6951 28.1725 51.409 27.2955 51.409ZM46.3864 46.6363C44.6316 46.6363 43.2045 48.0633 43.2045 49.8182C43.2045 51.573 44.6315 53 46.3864 53C48.1413 53 49.5682 51.573 49.5682 49.8182C49.5682 48.0633 48.1412 46.6363 46.3864 46.6363ZM46.3864 51.409C45.5094 51.409 44.7955 50.6951 44.7955 49.8182C44.7955 48.9412 45.5094 48.2273 46.3864 48.2273C47.2634 48.2273 47.9773 48.9412 47.9773 49.8182C47.9773 50.6951 47.2634 51.409 46.3864 51.409Z" fill="black"/>
</svg>
