<svg width="41" height="41" viewBox="0 0 41 41" fill="none" xmlns="http://www.w3.org/2000/svg">
<rect x="0.685059" y="0.38623" width="40" height="40" rx="11.4721" fill="white"/>
<g clip-path="url(#clip0_138_2626)">
<path d="M8.18506 17.7819C8.18506 17.4944 8.41839 17.2611 8.70589 17.2611H13.9142C14.2017 17.2611 14.4351 17.4944 14.4351 17.7819C14.4351 18.0694 14.2017 18.3027 13.9142 18.3027H8.70589C8.41839 18.3027 8.18506 18.0694 8.18506 17.7819ZM33.1851 18.8236V24.0319C33.1851 25.5902 32.2017 26.9236 30.8226 27.4444C31.0059 27.8444 31.1017 28.2757 31.1017 28.7194C31.1017 30.4423 29.6996 31.8444 27.9767 31.8444C26.2538 31.8444 24.8517 30.4423 24.8517 28.7194C24.8517 28.3611 24.9142 28.01 25.0351 27.6777H16.3351C16.4559 28.01 16.5184 28.3611 16.5184 28.7194C16.5184 30.4423 15.1163 31.8444 13.3934 31.8444C11.6705 31.8444 10.2684 30.4423 10.2684 28.7194C10.2684 28.2757 10.3642 27.8444 10.5476 27.4444C9.16839 26.9236 8.18506 25.5902 8.18506 24.0319V20.9069C8.18506 20.6194 8.41839 20.3861 8.70589 20.3861C8.99339 20.3861 9.22673 20.6194 9.22673 20.9069V24.0319C9.22673 25.4673 10.3944 26.6361 11.8309 26.6361H24.8517V13.6152C24.8517 11.6048 23.2163 9.9694 21.2059 9.9694C20.9184 9.9694 20.6851 9.73607 20.6851 9.44857C20.6851 9.16107 20.9184 8.92773 21.2059 8.92773C23.7903 8.92773 25.8934 11.0309 25.8934 13.6152V14.1361H28.4976C31.0819 14.1361 33.1851 16.2392 33.1851 18.8236ZM25.8934 15.1777V20.3861H32.1434V18.8236C32.1434 16.8132 30.508 15.1777 28.4976 15.1777H25.8934ZM15.1882 27.6777H11.8309C11.7549 27.6777 11.6788 27.6746 11.6028 27.6704C11.4101 27.9923 11.3101 28.3496 11.3101 28.7194C11.3101 29.8684 12.2444 30.8027 13.3934 30.8027C14.5424 30.8027 15.4767 29.8684 15.4767 28.7194C15.4767 28.3527 15.3778 27.9975 15.1882 27.6777ZM29.7673 27.6704C29.6923 27.6757 29.6163 27.6777 29.5392 27.6777H26.1819C25.9923 27.9975 25.8934 28.3527 25.8934 28.7194C25.8934 29.8684 26.8278 30.8027 27.9767 30.8027C29.1257 30.8027 30.0601 29.8684 30.0601 28.7194C30.0601 28.3496 29.959 27.9923 29.7673 27.6704ZM32.1434 24.0319V21.4277H25.8934V26.6361H29.5392C30.9757 26.6361 32.1434 25.4673 32.1434 24.0319ZM8.70589 9.9694H18.0809C18.3684 9.9694 18.6017 9.73607 18.6017 9.44857C18.6017 9.16107 18.3684 8.92773 18.0809 8.92773H8.70589C8.41839 8.92773 8.18506 9.16107 8.18506 9.44857C8.18506 9.73607 8.41839 9.9694 8.70589 9.9694ZM8.70589 14.1361H15.9976C16.2851 14.1361 16.5184 13.9027 16.5184 13.6152C16.5184 13.3277 16.2851 13.0944 15.9976 13.0944H8.70589C8.41839 13.0944 8.18506 13.3277 8.18506 13.6152C8.18506 13.9027 8.41839 14.1361 8.70589 14.1361Z" fill="#FFB300"/>
</g>
<defs>
<clipPath id="clip0_138_2626">
<rect width="25" height="25" fill="white" transform="translate(8.18506 7.88623)"/>
</clipPath>
</defs>
</svg>
