<svg width="20" height="21" viewBox="0 0 20 21" fill="none" xmlns="http://www.w3.org/2000/svg">
<path d="M18.2422 3.76562H1.75781C0.786602 3.76562 0 4.55711 0 5.52344V16.0703C0 17.0424 0.792383 17.8281 1.75781 17.8281H18.2422C19.2053 17.8281 20 17.0457 20 16.0703V5.52344C20 4.55883 19.2165 3.76562 18.2422 3.76562ZM17.996 4.9375L11.243 11.655C10.9109 11.987 10.4695 12.1698 10 12.1698C9.53047 12.1698 9.08906 11.987 8.75594 11.6539L2.00398 4.9375H17.996ZM1.17188 15.8318V5.7627L6.23586 10.8L1.17188 15.8318ZM2.00473 16.6562L7.06672 11.6264L7.9284 12.4836C8.48176 13.037 9.21746 13.3417 10 13.3417C10.7825 13.3417 11.5182 13.037 12.0705 12.4847L12.9333 11.6264L17.9953 16.6562H2.00473ZM18.8281 15.8318L13.7641 10.8L18.8281 5.7627V15.8318Z" fill="#FFB300"/>
</svg>
