<svg width="32" height="33" viewBox="0 0 32 33" fill="none" xmlns="http://www.w3.org/2000/svg">
<rect y="0.514404" width="32" height="32" rx="8" fill="#FFB300"/>
<rect y="0.514404" width="32" height="32" rx="8" fill="url(#paint0_linear_6028_6148)"/>
<path d="M23 7.5144H9C7.58579 7.5144 6.87868 7.5144 6.43934 7.9266C6 8.3388 6 9.00222 6 10.3291V11.0189C6 12.0567 6 12.5756 6.2596 13.0058C6.5192 13.436 6.99347 13.703 7.94202 14.237L10.855 15.8768C11.4915 16.235 11.8097 16.4142 12.0375 16.612C12.512 17.0239 12.8041 17.5079 12.9364 18.1016C13 18.3866 13 18.7202 13 19.3873L13 22.0568C13 22.9664 13 23.4211 13.2519 23.7757C13.5038 24.1302 13.9513 24.3051 14.8462 24.655C16.7248 25.3894 17.6641 25.7566 18.3321 25.3388C19 24.921 19 23.9663 19 22.0568V19.3873C19 18.7202 19 18.3866 19.0636 18.1016C19.1959 17.5079 19.488 17.0239 19.9625 16.612C20.1903 16.4142 20.5085 16.235 21.145 15.8768L24.058 14.237C25.0065 13.703 25.4808 13.436 25.7404 13.0058C26 12.5756 26 12.0567 26 11.0189V10.3291C26 9.00222 26 8.3388 25.5607 7.9266C25.1213 7.5144 24.4142 7.5144 23 7.5144Z" fill="white"/>
<defs>
<linearGradient id="paint0_linear_6028_6148" x1="4.62877" y1="1.56921" x2="31.8117" y2="14.4826" gradientUnits="userSpaceOnUse">
<stop stop-color="#FFCC54"/>
<stop offset="1" stop-color="#FFB300"/>
</linearGradient>
</defs>
</svg>
