<svg width="46" height="46" viewBox="0 0 46 46" fill="none" xmlns="http://www.w3.org/2000/svg">
<rect x="0.961914" y="0.501099" width="45" height="45" rx="12.9061" fill="white"/>
<path d="M38.5944 16.7738L28.217 11.0755C28.128 11.0267 28.0281 11.0011 27.9266 11.0011C27.8251 11.0011 27.7252 11.0267 27.6362 11.0755L23.7338 13.2183C23.6448 13.2433 23.5626 13.2884 23.4937 13.3501L17.2587 16.7738C17.1639 16.8259 17.0849 16.9024 17.0298 16.9954C16.9748 17.0885 16.9457 17.1946 16.9457 17.3027V18.5363H9.98469C9.65146 18.5363 9.38135 18.8066 9.38135 19.1396C9.38135 19.4728 9.65146 19.7429 9.98469 19.7429H16.9457V21.915H13.4867C13.1534 21.915 12.8833 22.1853 12.8833 22.5183C12.8833 22.8515 13.1534 23.1217 13.4867 23.1217H16.9457V26.259H11.8777C11.5444 26.259 11.2743 26.5293 11.2743 26.8624C11.2743 27.1956 11.5444 27.4657 11.8777 27.4657H16.9457V28.6995C16.9457 28.9196 17.0657 29.1223 17.2588 29.2283L27.6362 34.9266C27.7267 34.9764 27.8267 35.0011 27.9266 35.0011C28.0265 35.0011 28.1265 34.9764 28.217 34.9266L38.5944 29.2283C38.6892 29.1763 38.7682 29.0997 38.8233 29.0067C38.8783 28.9137 38.9074 28.8076 38.9074 28.6995V25.9977C38.9074 25.6646 38.6373 25.3943 38.304 25.3943C37.9708 25.3943 37.7007 25.6646 37.7007 25.9977V28.3424L28.5299 33.3782V23.3581L31.4465 21.7566V24.2982C31.4464 24.3774 31.462 24.4559 31.4923 24.5291C31.5226 24.6023 31.5671 24.6688 31.6231 24.7249C31.6791 24.7809 31.7457 24.8253 31.8189 24.8557C31.8921 24.886 31.9706 24.9016 32.0498 24.9015C32.1497 24.9015 32.2499 24.8768 32.3406 24.8268L34.5645 23.6029C34.6591 23.5508 34.738 23.4742 34.7929 23.3812C34.8478 23.2883 34.8768 23.1822 34.8768 23.0742V19.873L37.7007 18.3224V21.1709C37.7007 21.5042 37.9708 21.7743 38.304 21.7743C38.6373 21.7743 38.9074 21.5042 38.9074 21.1709V17.3027C38.9074 17.0826 38.7875 16.8798 38.5944 16.7738ZM27.3232 33.3782L18.1524 28.3424V18.3225L27.3232 23.358V33.3782ZM27.9266 22.3128L18.8027 17.3027L21.6702 15.7281L30.7943 20.7382L27.9266 22.3128ZM32.0479 20.0498L22.9238 15.0397L23.913 14.4966L33.0368 19.5068L32.0479 20.0498ZM33.6701 22.7177L32.6531 23.2774V21.0941L33.6701 20.5355V22.7177ZM34.2904 18.8183L25.1665 13.8082L27.9266 12.2928L37.0505 17.3027L34.2904 18.8183Z" fill="#191919"/>
<path d="M38.3044 22.9812C38.1444 22.9814 37.991 23.045 37.8778 23.158C37.765 23.2713 37.7014 23.4246 37.701 23.5845C37.701 23.7431 37.7656 23.8989 37.8778 24.0111C37.99 24.1233 38.1457 24.1879 38.3044 24.1879C38.463 24.1879 38.6187 24.1233 38.7309 24.0111C38.8436 23.8977 38.9071 23.7444 38.9077 23.5845C38.9077 23.4252 38.8431 23.2701 38.7309 23.158C38.6177 23.045 38.4643 22.9814 38.3044 22.9812ZM9.48465 26.259H8.61994C8.28672 26.259 8.0166 26.5293 8.0166 26.8623C8.0166 27.1956 8.28672 27.4657 8.61994 27.4657H9.48465C9.81788 27.4657 10.088 27.1956 10.088 26.8623C10.088 26.5293 9.81788 26.259 9.48465 26.259ZM11.6772 22.5183C11.6772 22.3597 11.6126 22.2042 11.5002 22.0919C11.3869 21.9791 11.2337 21.9155 11.0739 21.915C10.9139 21.9155 10.7606 21.9791 10.6473 22.0919C10.5343 22.2051 10.4707 22.3584 10.4705 22.5183C10.4705 22.6771 10.5343 22.8327 10.6473 22.9449C10.7607 23.0576 10.9139 23.1211 11.0739 23.1217C11.2325 23.1217 11.388 23.0573 11.5002 22.9449C11.6131 22.8316 11.6767 22.6783 11.6772 22.5183V22.5183Z" fill="#191919"/>
</svg>
