<svg width="20" height="21" viewBox="0 0 20 21" fill="none" xmlns="http://www.w3.org/2000/svg">
<g clip-path="url(#clip0_148_1135)">
<path d="M19.9805 6.67693C19.9336 5.61422 19.7618 4.88369 19.5156 4.2506C19.2616 3.57863 18.8709 2.97703 18.3591 2.47689C17.8589 1.96898 17.2533 1.57429 16.5891 1.32432C15.9524 1.07818 15.2257 0.906271 14.163 0.859465C13.0924 0.808596 12.7525 0.796875 10.0371 0.796875C7.32174 0.796875 6.98186 0.808596 5.91521 0.85548C4.85254 0.902364 4.12197 1.07435 3.48907 1.32034C2.81691 1.57429 2.21531 1.96499 1.71517 2.47689C1.20726 2.97699 0.812769 3.58258 0.562603 4.24677C0.316461 4.88369 0.144592 5.61031 0.0977466 6.67294C0.0469164 7.74358 0.0351562 8.08345 0.0351562 10.7988C0.0351562 13.5142 0.0469164 13.8541 0.0937614 14.9207C0.140646 15.9834 0.312632 16.714 0.558813 17.3471C0.812769 18.019 1.20726 18.6206 1.71517 19.1208C2.21531 19.6287 2.8209 20.0234 3.48509 20.2733C4.12193 20.5195 4.84856 20.6914 5.91142 20.7382C6.97788 20.7852 7.31795 20.7968 10.0333 20.7968C12.7487 20.7968 13.0886 20.7852 14.1552 20.7382C15.2179 20.6913 15.9485 20.5195 16.5814 20.2733C17.2461 20.0163 17.8498 19.6233 18.3537 19.1193C18.8577 18.6154 19.2508 18.0118 19.5078 17.3471C19.7538 16.7102 19.9258 15.9834 19.9727 14.9207C20.0196 13.8541 20.0313 13.5142 20.0313 10.7988C20.0313 8.08345 20.0273 7.74354 19.9805 6.67693ZM18.1794 14.8426C18.1364 15.8193 17.9723 16.3468 17.8356 16.6984C17.4995 17.5697 16.808 18.2612 15.9367 18.5973C15.5851 18.734 15.0538 18.8981 14.0809 18.941C13.026 18.988 12.7096 18.9996 10.0411 18.9996C7.37257 18.9996 7.05223 18.988 6.00113 18.941C5.02437 18.8981 4.49693 18.734 4.1453 18.5973C3.71173 18.437 3.31709 18.1831 2.99671 17.851C2.66462 17.5267 2.41066 17.136 2.25039 16.7024C2.11365 16.3508 1.94959 15.8193 1.90673 14.8466C1.85969 13.7917 1.84813 13.4751 1.84813 10.8066C1.84813 8.13807 1.85969 7.81774 1.90673 6.76683C1.94959 5.79008 2.11365 5.26263 2.25039 4.911C2.41066 4.47724 2.66461 4.08267 3.0007 3.76222C3.32482 3.43012 3.71552 3.17617 4.14928 3.0161C4.50091 2.87935 5.03234 2.71526 6.00511 2.67224C7.06 2.62536 7.37655 2.61364 10.0449 2.61364C12.7174 2.61364 13.0337 2.62536 14.0849 2.67224C15.0616 2.7153 15.5891 2.87931 15.9407 3.01606C16.3742 3.17617 16.7689 3.43012 17.0893 3.76222C17.4214 4.08654 17.6753 4.47724 17.8356 4.911C17.9723 5.26263 18.1364 5.79387 18.1794 6.76683C18.2263 7.82172 18.238 8.13807 18.238 10.8066C18.238 13.4751 18.2263 13.7877 18.1794 14.8426Z" fill="#FFB300"/>
<path d="M10.0371 5.66108C7.20072 5.66108 4.89941 7.96224 4.89941 10.7988C4.89941 13.6354 7.20072 15.9365 10.0371 15.9365C12.8736 15.9365 15.1749 13.6354 15.1749 10.7988C15.1749 7.96224 12.8736 5.66108 10.0371 5.66108ZM10.0371 14.1315C8.19701 14.1315 6.70438 12.6391 6.70438 10.7988C6.70438 8.95853 8.19701 7.46612 10.0371 7.46612C11.8774 7.46612 13.3698 8.95853 13.3698 10.7988C13.3698 12.6391 11.8773 14.1315 10.0371 14.1315ZM16.5776 5.45792C16.5776 6.12032 16.0405 6.65737 15.3779 6.65737C14.7156 6.65737 14.1785 6.12032 14.1785 5.45792C14.1785 4.79545 14.7156 4.25854 15.378 4.25854C16.0405 4.25854 16.5776 4.79541 16.5776 5.45792Z" fill="#FFB300"/>
</g>
<defs>
<clipPath id="clip0_148_1135">
<rect width="20" height="20" fill="white" transform="translate(0 0.796631)"/>
</clipPath>
</defs>
</svg>
