<svg width="55" height="55" viewBox="0 0 55 55" fill="none" xmlns="http://www.w3.org/2000/svg">
<rect x="0.257568" y="0.5" width="54" height="54" rx="27" fill="#FFB300"/>
<rect x="0.257568" y="0.5" width="54" height="54" rx="27" fill="url(#paint0_linear_894_178)"/>
<path d="M27.2576 17.662C30.4616 17.662 30.8416 17.674 32.1066 17.732C33.4146 17.792 34.7616 18.09 35.7146 19.043C36.6766 20.005 36.9656 21.339 37.0256 22.651C37.0836 23.916 37.0956 24.296 37.0956 27.5C37.0956 30.704 37.0836 31.084 37.0256 32.349C36.9666 33.65 36.6616 35.01 35.7146 35.957C34.7526 36.919 33.4196 37.208 32.1066 37.268C30.8416 37.326 30.4616 37.338 27.2576 37.338C24.0536 37.338 23.6736 37.326 22.4086 37.268C21.1176 37.209 19.7396 36.897 18.8006 35.957C17.8436 35 17.5496 33.653 17.4896 32.349C17.4316 31.084 17.4196 30.704 17.4196 27.5C17.4196 24.296 17.4316 23.916 17.4896 22.651C17.5486 21.355 17.8566 19.987 18.8006 19.043C19.7606 18.083 21.0996 17.792 22.4086 17.732C23.6736 17.674 24.0536 17.662 27.2576 17.662ZM27.2576 15.5C23.9986 15.5 23.5896 15.514 22.3096 15.572C20.4546 15.657 18.6126 16.173 17.2716 17.514C15.9256 18.86 15.4146 20.698 15.3296 22.552C15.2716 23.832 15.2576 24.241 15.2576 27.5C15.2576 30.759 15.2716 31.168 15.3296 32.448C15.4146 34.301 15.9326 36.148 17.2716 37.486C18.6166 38.831 20.4576 39.343 22.3096 39.428C23.5896 39.486 23.9986 39.5 27.2576 39.5C30.5166 39.5 30.9256 39.486 32.2056 39.428C34.0596 39.343 35.9036 38.826 37.2436 37.486C38.5906 36.139 39.1006 34.302 39.1856 32.448C39.2436 31.168 39.2576 30.759 39.2576 27.5C39.2576 24.241 39.2436 23.832 39.1856 22.552C39.1006 20.697 38.5836 18.854 37.2436 17.514C35.9006 16.171 34.0546 15.656 32.2056 15.572C30.9256 15.514 30.5166 15.5 27.2576 15.5Z" fill="white"/>
<path d="M27.2577 21.338C23.8547 21.338 21.0957 24.097 21.0957 27.5C21.0957 30.903 23.8547 33.662 27.2577 33.662C30.6607 33.662 33.4197 30.903 33.4197 27.5C33.4197 24.097 30.6607 21.338 27.2577 21.338ZM27.2577 31.5C25.0487 31.5 23.2577 29.709 23.2577 27.5C23.2577 25.291 25.0487 23.5 27.2577 23.5C29.4667 23.5 31.2577 25.291 31.2577 27.5C31.2577 29.709 29.4667 31.5 27.2577 31.5Z" fill="white"/>
<path d="M33.6636 22.5341C34.4589 22.5341 35.1036 21.8893 35.1036 21.0941C35.1036 20.2988 34.4589 19.6541 33.6636 19.6541C32.8683 19.6541 32.2236 20.2988 32.2236 21.0941C32.2236 21.8893 32.8683 22.5341 33.6636 22.5341Z" fill="white"/>
<defs>
<linearGradient id="paint0_linear_894_178" x1="8.06861" y1="2.27999" x2="53.9399" y2="24.0714" gradientUnits="userSpaceOnUse">
<stop stop-color="#FFCC54"/>
<stop offset="1" stop-color="#FFB300"/>
</linearGradient>
</defs>
</svg>
