<svg width="25" height="25" viewBox="0 0 25 25" fill="none" xmlns="http://www.w3.org/2000/svg">
<circle cx="12.5" cy="12.5" r="11" stroke="#F1F0EC" stroke-width="2"/>
<path d="M23.498 12.5C24.0514 12.5 24.5043 12.9494 24.4582 13.5009C24.2759 15.6797 23.5008 17.7743 22.2082 19.5534C20.7187 21.6036 18.6183 23.1296 16.2082 23.9127C13.7981 24.6958 11.2019 24.6958 8.7918 23.9127C6.70031 23.2331 4.84211 21.9941 3.41391 20.3386C3.05244 19.9196 3.15473 19.2897 3.60243 18.9645C4.05013 18.6392 4.6732 18.7424 5.04164 19.1553C6.21601 20.4714 7.72224 21.458 9.41107 22.0068C11.4187 22.6591 13.5813 22.6591 15.5889 22.0068C17.5966 21.3544 19.3461 20.0833 20.5869 18.3755C21.6307 16.9389 22.2693 15.2554 22.4458 13.5003C22.5012 12.9497 22.9446 12.5 23.498 12.5Z" fill="#418D12"/>
</svg>
