<svg xmlns="http://www.w3.org/2000/svg" xmlns:xlink="http://www.w3.org/1999/xlink" width="200" zoomAndPan="magnify" viewBox="0 0 150 149.999998" height="200" preserveAspectRatio="xMidYMid meet" version="1.0"><path fill="#191919" d="M 87.4375 64.277344 C 89.121094 64.628906 91.027344 64.558594 92.433594 63.457031 C 97.800781 59.632812 103.035156 55.613281 108.066406 51.359375 C 108.472656 51.003906 108.878906 50.648438 109.289062 50.289062 C 112.582031 47.414062 115.886719 44.53125 118.785156 41.257812 C 119.703125 40.238281 120.457031 39.09375 121.113281 37.894531 C 123.359375 34.09375 125.210938 30.085938 127.054688 26.082031 C 127.234375 25.695312 127.414062 25.304688 127.59375 24.917969 C 128.101562 23.710938 128.578125 22.492188 129.050781 21.273438 C 129.507812 20.105469 129.964844 18.9375 130.445312 17.78125 C 127.558594 20.691406 124.457031 23.367188 121.355469 26.042969 C 118.996094 28.085938 116.632812 30.125 114.359375 32.269531 C 114.703125 31.207031 115.113281 30.175781 115.519531 29.140625 C 115.953125 28.039062 116.390625 26.9375 116.746094 25.804688 C 116.800781 25.621094 116.875 25.441406 116.941406 25.257812 C 117.09375 24.875 117.246094 24.492188 117.246094 24.074219 C 116.28125 25.261719 115.242188 26.386719 114.207031 27.515625 C 113.757812 28.007812 113.3125 28.492188 112.867188 28.984375 C 106.996094 35.296875 101.164062 41.644531 95.421875 48.074219 C 95.53125 47.578125 95.648438 47.085938 95.769531 46.589844 C 96.042969 45.421875 96.320312 44.261719 96.542969 43.085938 C 96.308594 43.183594 96.09375 43.316406 95.941406 43.523438 C 94.183594 45.472656 92.214844 47.210938 90.246094 48.945312 C 89.78125 49.355469 89.320312 49.765625 88.859375 50.175781 C 85.890625 52.765625 82.929688 55.378906 80.128906 58.148438 C 81.265625 61.300781 84.222656 63.546875 87.4375 64.277344 Z M 87.4375 64.277344 " fill-opacity="1" fill-rule="evenodd"/><path fill="#191919" d="M 133.550781 49.113281 C 137.40625 45.980469 141.46875 43.085938 145.832031 40.699219 C 142.15625 40.546875 138.46875 41.03125 134.894531 41.867188 C 136.417969 39.980469 138.484375 38.738281 140.535156 37.5 C 141.441406 36.953125 142.351562 36.40625 143.207031 35.804688 C 140.261719 35.878906 137.316406 36.09375 134.398438 36.464844 C 135.695312 34.929688 136.828125 33.265625 137.914062 31.578125 C 136.554688 32.054688 135.316406 32.816406 134.128906 33.617188 C 133.335938 34.113281 132.871094 34.917969 132.414062 35.710938 C 132.273438 35.957031 132.128906 36.199219 131.984375 36.433594 C 131.121094 37.941406 130.183594 39.402344 129.242188 40.863281 C 129.085938 41.109375 128.925781 41.359375 128.765625 41.609375 C 130.464844 40.992188 132.171875 40.40625 133.882812 39.820312 C 134.242188 39.695312 134.609375 39.574219 134.972656 39.449219 C 134.523438 39.855469 134.0625 40.253906 133.601562 40.65625 C 132.5 41.609375 131.390625 42.570312 130.433594 43.679688 C 128.472656 45.722656 127.109375 48.226562 125.761719 50.695312 C 125.683594 50.84375 125.601562 50.988281 125.523438 51.136719 C 124.207031 54.085938 122.785156 57.019531 120.769531 59.566406 C 118.054688 63.15625 114.621094 66.164062 110.859375 68.621094 C 110.257812 69.027344 109.65625 69.433594 109.054688 69.839844 C 105.671875 72.113281 102.273438 74.394531 99.414062 77.320312 C 99.214844 77.527344 99.003906 77.734375 98.796875 77.941406 C 98.003906 78.726562 97.203125 79.519531 96.710938 80.503906 C 96.738281 80.714844 96.769531 80.925781 96.800781 81.132812 C 96.90625 81.871094 97.015625 82.613281 97.03125 83.359375 C 98.84375 81.261719 101.074219 79.558594 103.363281 78.003906 C 107.339844 75.429688 111.738281 73.15625 116.550781 72.824219 C 116.261719 73.078125 115.921875 73.261719 115.578125 73.421875 L 115.570312 73.445312 C 115.226562 73.625 114.886719 73.808594 114.542969 73.992188 C 111.765625 75.46875 108.96875 76.953125 106.523438 78.957031 C 103.125 81.691406 100.078125 84.851562 97.367188 88.265625 C 95.433594 90.78125 93.648438 93.46875 92.484375 96.429688 C 93.566406 94.667969 94.914062 93.097656 96.25 91.527344 C 96.59375 91.125 96.9375 90.726562 97.273438 90.324219 C 100.023438 87.046875 103.171875 84.082031 106.699219 81.652344 C 106.148438 82.351562 105.507812 82.96875 104.871094 83.585938 C 104.335938 84.105469 103.800781 84.625 103.316406 85.191406 C 100.644531 88.167969 98.167969 91.308594 95.921875 94.613281 C 90.578125 102.289062 85.402344 110.1875 81.851562 118.878906 C 82.917969 116.691406 84.074219 114.550781 85.300781 112.449219 C 86.984375 109.488281 88.964844 106.722656 90.949219 103.960938 C 91.359375 103.386719 91.769531 102.8125 92.175781 102.238281 C 95.363281 97.867188 98.980469 93.855469 102.601562 89.84375 C 104.535156 87.707031 106.46875 85.5625 108.335938 83.367188 C 108.488281 83.222656 108.65625 83.089844 108.832031 82.96875 C 109.339844 83.179688 109.863281 83.359375 110.382812 83.535156 C 110.929688 83.726562 111.472656 83.914062 112.007812 84.140625 C 115.625 85.628906 119.007812 87.675781 122.054688 90.125 C 120.789062 87.648438 119.917969 84.945312 119.640625 82.171875 C 119.828125 82.269531 120.019531 82.367188 120.210938 82.464844 C 120.753906 82.742188 121.300781 83.019531 121.828125 83.339844 C 125.882812 85.59375 128.980469 89.152344 131.878906 92.695312 C 132.175781 93.097656 132.480469 93.492188 132.78125 93.890625 C 134.722656 96.445312 136.671875 99.007812 138.097656 101.886719 C 137.015625 97 135.761719 92.144531 134.171875 87.394531 C 134.023438 86.972656 133.878906 86.554688 133.734375 86.136719 C 132.671875 83.085938 131.609375 80.035156 130.277344 77.09375 C 128.65625 73.441406 126.988281 69.753906 124.570312 66.554688 C 125.539062 66.636719 126.484375 66.890625 127.402344 67.214844 C 131.464844 68.621094 135.277344 70.738281 138.613281 73.449219 C 136.867188 69.019531 134.75 64.679688 131.851562 60.882812 C 132.242188 60.921875 132.640625 60.960938 133.003906 61.121094 C 134.878906 61.867188 136.679688 62.828125 138.308594 64.027344 C 138.441406 64.132812 138.578125 64.226562 138.722656 64.328125 C 139.085938 64.578125 139.457031 64.832031 139.679688 65.222656 C 139.726562 64.960938 139.601562 64.734375 139.476562 64.507812 C 139.398438 64.367188 139.324219 64.226562 139.285156 64.074219 C 138.332031 61.488281 136.695312 59.234375 135.070312 57.027344 C 136.8125 56.625 138.578125 56.292969 140.375 56.277344 C 138.382812 53.640625 136.039062 51.292969 133.558594 49.121094 Z M 133.550781 49.113281 " fill-opacity="1" fill-rule="evenodd"/><path fill="#191919" d="M 34.476562 44.71875 C 40.21875 50.222656 46.261719 55.425781 52.714844 60.085938 C 54.433594 61.394531 56.195312 62.652344 58.042969 63.777344 C 58.898438 64.308594 59.933594 64.484375 60.929688 64.46875 C 64.636719 64.382812 68.054688 61.753906 69.203125 58.253906 C 69.136719 57.949219 68.886719 57.75 68.640625 57.554688 C 68.523438 57.460938 68.410156 57.371094 68.316406 57.269531 C 66.613281 55.667969 64.863281 54.113281 63.109375 52.5625 C 59.703125 49.546875 56.296875 46.53125 53.265625 43.128906 C 53.476562 44.785156 53.703125 46.449219 54.1875 48.050781 C 54.023438 47.960938 53.871094 47.859375 53.738281 47.738281 C 50.648438 44.4375 47.527344 41.164062 44.402344 37.894531 C 42.890625 36.308594 41.378906 34.730469 39.875 33.140625 C 37.378906 30.503906 34.964844 27.789062 32.558594 25.074219 C 32.277344 24.757812 32 24.441406 31.71875 24.128906 C 32.113281 25.652344 32.65625 27.128906 33.199219 28.601562 C 33.585938 29.660156 33.976562 30.714844 34.3125 31.789062 C 32.828125 30.488281 31.328125 29.210938 29.828125 27.929688 C 26.363281 24.972656 22.902344 22.019531 19.640625 18.835938 C 19.578125 18.777344 19.523438 18.71875 19.460938 18.65625 C 19.207031 18.394531 18.945312 18.128906 18.589844 18.003906 C 21.199219 25.023438 24.621094 31.726562 28.542969 38.105469 C 30.226562 40.554688 32.359375 42.652344 34.484375 44.730469 Z M 34.476562 44.71875 " fill-opacity="1" fill-rule="evenodd"/><path fill="#191919" d="M 36.023438 50.476562 C 35.730469 52.195312 35.574219 53.964844 35.925781 55.691406 C 36.691406 60.621094 41.433594 64.6875 46.472656 64.371094 C 48.347656 64.378906 50.0625 63.542969 51.6875 62.703125 C 51.382812 62.320312 50.972656 62.058594 50.566406 61.796875 C 50.390625 61.683594 50.210938 61.566406 50.039062 61.441406 C 48.539062 61.710938 46.972656 61.867188 45.476562 61.5 C 43.332031 61.070312 41.414062 59.625 40.410156 57.691406 C 39.597656 56.285156 39.640625 54.605469 39.816406 53.046875 C 38.546875 52.199219 37.28125 51.339844 36.023438 50.476562 Z M 36.023438 50.476562 " fill-opacity="1" fill-rule="evenodd"/><path fill="#191919" d="M 105.429688 61.027344 C 103.519531 61.921875 101.296875 61.933594 99.269531 61.464844 C 98.851562 61.671875 98.480469 61.949219 98.113281 62.230469 C 97.992188 62.320312 97.871094 62.414062 97.746094 62.5 C 100.03125 63.9375 102.796875 64.804688 105.496094 64.183594 C 108.941406 63.453125 111.835938 60.785156 113.035156 57.507812 C 113.894531 55.273438 114.0625 52.796875 113.550781 50.460938 C 112.820312 50.847656 112.125 51.285156 111.421875 51.722656 C 110.84375 52.082031 110.269531 52.441406 109.679688 52.773438 C 109.800781 53.914062 109.84375 55.078125 109.558594 56.195312 C 108.976562 58.300781 107.441406 60.140625 105.433594 61.027344 Z M 105.429688 61.027344 " fill-opacity="1" fill-rule="evenodd"/><path fill="#191919" d="M 90.132812 97.621094 C 92.585938 92.9375 95.039062 88.257812 97.027344 83.355469 C 97.007812 82.605469 96.902344 81.867188 96.792969 81.128906 C 96.765625 80.917969 96.734375 80.707031 96.703125 80.5 C 93.015625 75.707031 88.101562 71.945312 82.828125 69.046875 L 82.644531 68.953125 C 80.246094 67.742188 77.753906 66.488281 75.03125 66.320312 L 75.074219 66.523438 L 75.035156 66.335938 C 71.714844 67.089844 68.5 68.300781 65.511719 69.929688 C 62.03125 71.726562 59.078125 74.359375 56.296875 77.078125 C 56.050781 77.34375 55.796875 77.605469 55.542969 77.867188 C 54.640625 78.804688 53.730469 79.746094 53.082031 80.878906 C 53.011719 81.554688 52.996094 82.238281 53.160156 82.910156 C 54.074219 85.101562 55.027344 87.277344 56.117188 89.390625 C 58.324219 93.742188 60.421875 98.144531 62.492188 102.5625 C 64.738281 107.140625 66.921875 111.75 68.765625 116.507812 C 69.484375 118.101562 69.980469 119.78125 70.40625 121.46875 C 70.777344 122.746094 71.121094 124.03125 71.464844 125.3125 C 72.375 128.695312 73.285156 132.074219 74.59375 135.328125 C 74.714844 135.636719 74.886719 135.925781 75.066406 136.210938 C 75.082031 136.128906 75.101562 136.046875 75.117188 135.96875 C 75.101562 136.050781 75.085938 136.132812 75.066406 136.210938 C 75.101562 136.285156 75.148438 136.402344 75.199219 136.515625 L 75.210938 136.542969 C 75.257812 136.65625 75.304688 136.761719 75.335938 136.839844 C 75.519531 136.601562 75.628906 136.3125 75.730469 136.027344 C 75.789062 135.867188 75.847656 135.710938 75.921875 135.5625 C 77.4375 131.582031 78.542969 127.464844 79.644531 123.351562 C 79.984375 122.089844 80.324219 120.832031 80.671875 119.570312 C 82.007812 115.191406 83.578125 110.871094 85.519531 106.71875 C 86.972656 103.648438 88.554688 100.632812 90.132812 97.621094 Z M 90.132812 97.621094 " fill-opacity="1" fill-rule="evenodd"/><path fill="#191919" d="M 66.882812 114.066406 C 63.246094 107.148438 59.214844 100.429688 54.722656 94.03125 C 51.820312 90 48.507812 86.222656 44.613281 83.121094 C 46.675781 84.273438 48.484375 85.816406 50.277344 87.347656 C 50.449219 87.492188 50.621094 87.640625 50.792969 87.785156 C 53.582031 90.359375 56.308594 93.101562 58.296875 96.367188 C 58.09375 95.527344 57.683594 94.765625 57.273438 94.007812 C 57.117188 93.71875 56.960938 93.429688 56.816406 93.136719 C 56.070312 91.597656 55.003906 90.246094 53.949219 88.90625 C 50.753906 85.066406 46.941406 81.777344 42.863281 78.90625 C 41.035156 77.554688 39.066406 76.425781 37.09375 75.296875 C 36.445312 74.925781 35.796875 74.554688 35.15625 74.175781 C 34.886719 73.980469 34.605469 73.796875 34.332031 73.613281 C 34.242188 73.554688 34.152344 73.496094 34.0625 73.433594 C 41.082031 74.867188 48.03125 77.78125 53.160156 82.910156 C 52.996094 82.242188 53.011719 81.554688 53.082031 80.882812 C 53.027344 80.625 52.855469 80.425781 52.6875 80.234375 C 52.667969 80.214844 52.652344 80.195312 52.632812 80.171875 C 52.609375 80.144531 52.589844 80.121094 52.566406 80.09375 C 49.769531 77.089844 46.558594 74.507812 43.1875 72.175781 C 42.292969 71.511719 41.386719 70.859375 40.476562 70.210938 C 37.765625 68.265625 35.050781 66.320312 32.640625 64.011719 C 29.875 61.5 27.609375 58.464844 25.871094 55.15625 C 25.496094 54.46875 25.148438 53.761719 24.796875 53.050781 C 23.890625 51.207031 22.980469 49.363281 21.5625 47.851562 C 19.027344 45.105469 16.140625 42.671875 13.007812 40.648438 C 14.78125 40.953125 16.515625 41.464844 18.246094 41.976562 C 18.910156 42.167969 19.574219 42.367188 20.242188 42.550781 C 19.488281 41.273438 18.800781 39.957031 18.117188 38.640625 C 17.246094 36.964844 16.375 35.289062 15.359375 33.695312 C 15.078125 33.269531 14.699219 32.90625 14.234375 32.6875 C 12.617188 31.871094 10.78125 31.589844 8.984375 31.5625 C 10.265625 32.894531 11.378906 34.371094 12.492188 35.84375 C 12.648438 36.050781 12.804688 36.257812 12.960938 36.464844 C 10.148438 35.976562 7.292969 35.800781 4.445312 35.664062 C 7.726562 37.117188 10.707031 39.316406 12.894531 42.179688 C 10.1875 41.699219 7.417969 41.445312 4.695312 41.9375 C 5.171875 42.210938 5.664062 42.453125 6.160156 42.695312 C 6.828125 43.019531 7.5 43.34375 8.121094 43.753906 C 8.496094 43.988281 8.871094 44.222656 9.246094 44.457031 C 11.558594 45.898438 13.890625 47.347656 15.875 49.226562 C 13.699219 51.441406 11.582031 53.746094 9.949219 56.402344 C 10.542969 56.507812 11.140625 56.585938 11.742188 56.664062 C 12.601562 56.777344 13.460938 56.886719 14.308594 57.078125 C 14.074219 57.605469 13.746094 58.074219 13.417969 58.542969 C 13.242188 58.792969 13.0625 59.046875 12.902344 59.304688 C 11.625 61.203125 10.53125 63.222656 9.625 65.320312 C 12.492188 63.335938 15.632812 61.5 19.144531 61.019531 C 18.910156 61.324219 18.664062 61.617188 18.417969 61.910156 C 18.222656 62.136719 18.027344 62.371094 17.839844 62.605469 C 15.097656 65.960938 13.230469 69.914062 11.667969 73.925781 C 15.539062 70.558594 20.308594 68.074219 25.40625 67.253906 C 23.308594 70.265625 21.792969 73.628906 20.289062 76.96875 C 20.152344 77.273438 20.015625 77.578125 19.878906 77.882812 C 17.496094 83.5625 15.699219 89.453125 13.90625 95.335938 C 13.171875 97.738281 12.441406 100.140625 11.671875 102.527344 C 14.007812 98.390625 17.121094 94.765625 20.203125 91.175781 C 20.203125 91.175781 20.308594 91.054688 20.308594 91.054688 C 23.273438 87.816406 26.453125 84.660156 30.292969 82.472656 C 29.996094 83.253906 29.601562 83.996094 29.207031 84.734375 C 28.921875 85.269531 28.636719 85.808594 28.386719 86.363281 C 27.417969 88.304688 26.65625 90.335938 25.890625 92.363281 C 25.644531 93.011719 25.398438 93.664062 25.148438 94.308594 C 27.046875 91.863281 29.382812 89.808594 31.789062 87.875 C 34.695312 85.625 37.824219 83.542969 41.324219 82.332031 C 41.640625 82.667969 41.953125 83.007812 42.269531 83.34375 C 45.914062 87.25 49.558594 91.164062 52.960938 95.292969 C 58.589844 102.09375 64.160156 109.0625 68.1875 116.960938 C 68.148438 116.871094 68.109375 116.78125 68.070312 116.691406 C 67.691406 115.804688 67.3125 114.917969 66.867188 114.0625 Z M 66.882812 114.066406 " fill-opacity="1" fill-rule="evenodd"/><path fill="#191919" d="M 65.390625 66.722656 C 67.160156 66.375 68.960938 65.789062 70.367188 64.628906 C 71.710938 63.492188 71.699219 61.605469 71.6875 59.960938 C 71.6875 59.808594 71.6875 59.65625 71.6875 59.507812 L 71.382812 59.578125 C 70.957031 60.867188 70.429688 62.132812 69.703125 63.28125 C 68.65625 64.84375 67.039062 65.894531 65.390625 66.726562 Z M 65.390625 66.722656 " fill-opacity="1" fill-rule="evenodd"/><path fill="#191919" d="M 80.636719 65.304688 L 80.644531 65.304688 C 81.898438 65.980469 83.246094 66.511719 84.652344 66.726562 C 84.515625 66.644531 84.378906 66.5625 84.238281 66.480469 C 82.824219 65.636719 81.378906 64.777344 80.386719 63.4375 C 79.75 62.652344 79.328125 61.738281 78.90625 60.828125 C 78.675781 60.332031 78.449219 59.835938 78.183594 59.363281 C 78.035156 60.636719 78.191406 61.957031 78.535156 63.195312 C 78.808594 64.226562 79.777344 64.796875 80.636719 65.304688 Z M 80.636719 65.304688 " fill-opacity="1" fill-rule="evenodd"/></svg>