<svg width="203" height="81" viewBox="0 0 203 81" fill="none" xmlns="http://www.w3.org/2000/svg">
<g clip-path="url(#clip0_894_138)">
<path fill-rule="evenodd" clip-rule="evenodd" d="M36.3773 35.881C37.1067 36.0343 37.9327 36.0029 38.5416 35.5242C40.8666 33.8656 43.1326 32.1203 45.312 30.2744C45.4877 30.1199 45.6647 29.9653 45.8417 29.8108C47.2679 28.5631 48.699 27.3116 49.9557 25.8905C50.3524 25.4482 50.6788 24.9518 50.9637 24.4304C51.9367 22.7818 52.7376 21.0428 53.5373 19.3051C53.6151 19.1367 53.693 18.9671 53.7708 18.7987C53.9905 18.2747 54.1964 17.7457 54.4023 17.2167C54.5994 16.7104 54.7977 16.204 55.0061 15.7026C53.7545 16.9642 52.4125 18.1265 51.0692 19.2875C50.0461 20.1733 49.0229 21.0592 48.0387 21.989C48.1868 21.5291 48.3638 21.0805 48.5408 20.6319C48.7291 20.1532 48.9175 19.6757 49.0719 19.1844C49.0957 19.104 49.1271 19.0261 49.1572 18.947C49.2225 18.7798 49.2878 18.614 49.289 18.433C48.8697 18.9482 48.4203 19.437 47.9721 19.927C47.7776 20.1394 47.5842 20.3505 47.3921 20.5641C44.8487 23.3033 42.3228 26.0588 39.8347 28.8483C39.8836 28.6334 39.9338 28.4198 39.9853 28.205C40.1046 27.6986 40.2238 27.1935 40.3217 26.6833C40.2188 26.726 40.1259 26.7838 40.0606 26.8743C39.2986 27.72 38.4462 28.4739 37.5938 29.2278C37.3929 29.4049 37.1933 29.5821 36.9937 29.7605C35.7069 30.8851 34.4252 32.0185 33.2112 33.221C33.7033 34.5893 34.9851 35.5644 36.3773 35.881Z" fill="#FFB300"/>
<path fill-rule="evenodd" clip-rule="evenodd" d="M56.3506 29.3007C58.0202 27.9398 59.7803 26.6846 61.6697 25.648C60.0778 25.5814 58.481 25.7925 56.9331 26.1543C57.5934 25.3363 58.4872 24.7973 59.3761 24.2595C59.769 24.022 60.1619 23.7846 60.5335 23.5245C59.2581 23.5559 57.9826 23.6488 56.7171 23.8109C57.2795 23.145 57.7704 22.4225 58.2412 21.6899C57.6524 21.896 57.1151 22.2277 56.6004 22.5745C56.2577 22.7906 56.0568 23.1387 55.8584 23.483C55.7969 23.5898 55.7354 23.6953 55.6714 23.7971C55.2985 24.4518 54.8918 25.085 54.485 25.7196C54.416 25.8264 54.3469 25.9344 54.2779 26.0425C55.0136 25.7761 55.7542 25.5211 56.4937 25.2672C56.6506 25.2132 56.8088 25.1592 56.967 25.1052C56.7724 25.2823 56.5728 25.4557 56.3731 25.6291C55.8948 26.0438 55.4153 26.4597 55.001 26.9409C54.1511 27.828 53.5598 28.9149 52.9773 29.9867C52.9434 30.0508 52.9083 30.1136 52.8731 30.1777C52.3032 31.4581 51.6868 32.7309 50.8143 33.8367C49.6379 35.3948 48.1516 36.699 46.5221 37.7658C46.2622 37.943 46.0011 38.1189 45.7399 38.2948C44.2749 39.2812 42.8023 40.2725 41.5645 41.5416C41.4779 41.6321 41.3875 41.7213 41.2971 41.8118C40.9544 42.151 40.6066 42.4966 40.3932 42.9238C40.4058 43.0143 40.4183 43.106 40.4321 43.1965C40.4786 43.5169 40.525 43.8385 40.5326 44.1627C41.3172 43.2517 42.2838 42.5129 43.2743 41.8382C44.998 40.7211 46.9024 39.7348 48.9864 39.5903C48.8621 39.7008 48.7152 39.78 48.5658 39.8491L48.5621 39.8592C48.4139 39.9383 48.2658 40.0175 48.1177 40.0966C46.9137 40.7375 45.7023 41.382 44.644 42.2516C43.1714 43.4377 41.852 44.8098 40.6782 46.2913C39.8408 47.3832 39.0675 48.5505 38.5628 49.8346C39.0324 49.0707 39.6149 48.3884 40.1948 47.7073C40.343 47.5327 40.4911 47.3593 40.638 47.1846C41.8281 45.7623 43.1915 44.4768 44.7193 43.4214C44.4808 43.7255 44.2046 43.9931 43.9284 44.2607C43.6962 44.4856 43.4639 44.7118 43.2543 44.9581C42.098 46.2485 41.0247 47.6131 40.0517 49.0468C37.7368 52.3778 35.4946 55.8056 33.9568 59.5776C34.42 58.629 34.9209 57.6992 35.452 56.7869C36.1801 55.5028 37.0388 54.3015 37.8975 53.1028C38.0757 52.854 38.254 52.6052 38.4298 52.3552C39.8094 50.4579 41.3774 48.7176 42.9454 46.9773C43.7828 46.0487 44.6201 45.1189 45.4286 44.1652C45.4951 44.1024 45.5679 44.0446 45.6445 43.9931C45.8642 44.0848 46.0902 44.1627 46.3149 44.2394C46.5522 44.321 46.7882 44.4027 47.0192 44.5007C48.5859 45.1466 50.051 46.0362 51.3704 47.0979C50.823 46.0236 50.4452 44.8513 50.3259 43.6475C50.4075 43.6903 50.4891 43.7317 50.572 43.7745C50.808 43.8951 51.0452 44.0157 51.2737 44.1539C53.03 45.1315 54.3708 46.677 55.6262 48.215C55.7555 48.3884 55.8873 48.5605 56.0179 48.7327C56.8577 49.8409 57.7026 50.9542 58.3203 52.2032C57.8507 50.0822 57.3084 47.975 56.6192 45.913C56.5552 45.7308 56.4924 45.5499 56.4296 45.3677C55.9702 44.0433 55.5094 42.719 54.932 41.4424C54.2314 39.8579 53.5083 38.2584 52.4601 36.8686C52.8806 36.9051 53.2899 37.0144 53.6879 37.1564C55.4479 37.7658 57.0988 38.6856 58.5437 39.8617C57.788 37.9392 56.8703 36.0557 55.6149 34.4084C55.7831 34.4247 55.9564 34.4423 56.1133 34.5114C56.9268 34.8356 57.7064 35.2528 58.4107 35.773C58.4684 35.8182 58.5287 35.8597 58.5902 35.9024C58.7484 36.0117 58.9091 36.121 59.0057 36.2907C59.0258 36.1776 58.9718 36.0796 58.9178 35.9803C58.8839 35.92 58.8513 35.8584 58.835 35.7931C58.422 34.6697 57.7127 33.6922 57.0096 32.7347C57.7641 32.5601 58.5274 32.4156 59.3058 32.4093C58.4433 31.2646 57.4289 30.2456 56.3543 29.3032L56.3506 29.3007Z" fill="#FFB300"/>
<path fill-rule="evenodd" clip-rule="evenodd" d="M13.4373 27.3933C15.9242 29.7807 18.5417 32.0386 21.3362 34.0616C22.0819 34.6296 22.8439 35.1762 23.6449 35.6637C24.0152 35.8949 24.4634 35.9715 24.8953 35.964C26.5009 35.9276 27.981 34.7854 28.4794 33.2675C28.4493 33.1343 28.3413 33.0476 28.2346 32.9634C28.1844 32.9232 28.1354 32.8843 28.094 32.8403C27.3571 32.1442 26.5988 31.4707 25.8393 30.7972C24.3642 29.4879 22.8891 28.1786 21.5747 26.7035C21.6676 27.4209 21.7656 28.1434 21.9752 28.8383C21.9037 28.8006 21.8384 28.7554 21.7806 28.7026C20.4424 27.2702 19.0903 25.8503 17.737 24.4304C17.0817 23.7431 16.4276 23.0571 15.7748 22.3685C14.6939 21.2238 13.6494 20.0452 12.6062 18.8666C12.4844 18.7296 12.3639 18.5927 12.2434 18.457C12.4141 19.1179 12.6489 19.7587 12.8836 20.3983C13.0519 20.8569 13.2201 21.3155 13.3657 21.7817C12.7229 21.2175 12.0726 20.6622 11.4236 20.1068C9.92341 18.8239 8.42321 17.541 7.01089 16.1601C6.98452 16.1349 6.95941 16.1085 6.93305 16.0822C6.82258 15.9678 6.70959 15.8522 6.55518 15.7994C7.68629 18.8452 9.16891 21.7541 10.8662 24.5222C11.5956 25.5852 12.5208 26.4962 13.4398 27.3971L13.4373 27.3933Z" fill="#FFB300"/>
<path fill-rule="evenodd" clip-rule="evenodd" d="M14.1065 29.8912C13.9809 30.6376 13.9119 31.4053 14.065 32.1542C14.3965 34.2941 16.4503 36.0582 18.6334 35.9213C19.4457 35.925 20.1889 35.5619 20.8919 35.1975C20.7601 35.0316 20.5818 34.9186 20.4061 34.8042C20.3295 34.7552 20.2516 34.7049 20.1788 34.6509C19.5285 34.7665 18.8506 34.8356 18.2016 34.676C17.2726 34.4888 16.4428 33.8618 16.0071 33.0225C15.6556 32.4118 15.6745 31.683 15.7498 31.007C15.1999 30.6389 14.6526 30.2657 14.1077 29.8912H14.1065Z" fill="#FFB300"/>
<path fill-rule="evenodd" clip-rule="evenodd" d="M44.1708 34.4699C43.3423 34.8594 42.3794 34.8632 41.5019 34.6596C41.3211 34.7501 41.1604 34.8707 41.001 34.9926C40.9482 35.0316 40.8968 35.0718 40.8428 35.1095C41.832 35.734 43.0297 36.1097 44.1985 35.8395C45.6911 35.5229 46.9453 34.3656 47.465 32.9432C47.8366 31.9732 47.9094 30.8989 47.6872 29.8849C47.3721 30.0533 47.0695 30.243 46.7657 30.4327C46.5159 30.5885 46.2673 30.7443 46.0112 30.8888C46.064 31.3827 46.0815 31.8878 45.9585 32.3728C45.7062 33.2875 45.0421 34.0854 44.1721 34.4699H44.1708Z" fill="#FFB300"/>
<path fill-rule="evenodd" clip-rule="evenodd" d="M37.5448 50.351C38.6069 48.3192 39.6702 46.2887 40.5301 44.1601C40.5226 43.836 40.4762 43.5143 40.4297 43.1939C40.4172 43.1034 40.4033 43.0117 40.3908 42.9212C38.7939 40.8417 36.6648 39.2095 34.3812 37.9504L34.3009 37.9102C33.2614 37.385 32.183 36.8409 31.0029 36.7681L31.0218 36.856L31.0042 36.7744C29.5668 37.101 28.1745 37.6263 26.8802 38.3337C25.3725 39.114 24.0932 40.2562 22.8893 41.436C22.7826 41.5516 22.6721 41.666 22.5629 41.779C22.1712 42.1862 21.777 42.5945 21.4958 43.0858C21.4657 43.3786 21.4594 43.6764 21.5297 43.9666C21.9252 44.9178 22.3382 45.8627 22.8102 46.78C23.7668 48.6685 24.6757 50.5784 25.5721 52.4959C26.545 54.4824 27.4916 56.484 28.29 58.5485C28.6001 59.2408 28.816 59.9684 29.0006 60.7022C29.16 61.2563 29.3094 61.8129 29.4588 62.3696C29.853 63.8372 30.2472 65.3048 30.8134 66.7171C30.8661 66.8503 30.9402 66.976 31.0192 67.0991C31.0255 67.0639 31.0331 67.0287 31.0406 66.9948C31.0331 67.03 31.0268 67.0652 31.0192 67.0991C31.0331 67.1318 31.0544 67.182 31.0757 67.2323L31.0808 67.2436C31.1009 67.2926 31.1222 67.3391 31.1347 67.3718C31.2151 67.2687 31.2615 67.1443 31.3067 67.0199C31.3318 66.9508 31.3569 66.8817 31.3883 66.8176C32.0462 65.0899 32.5245 63.3044 33.0015 61.5189C33.1484 60.9711 33.2953 60.4245 33.4472 59.8779C34.0247 57.9768 34.7051 56.1021 35.5462 54.3002C36.1764 52.9671 36.8606 51.659 37.5448 50.351Z" fill="#FFB300"/>
<path fill-rule="evenodd" clip-rule="evenodd" d="M27.474 57.4893C25.8984 54.4862 24.1522 51.5711 22.2063 48.7942C20.9497 47.0451 19.5148 45.4054 17.8275 44.0597C18.7213 44.5597 19.5047 45.2282 20.2818 45.8929C20.3559 45.9557 20.4299 46.0198 20.504 46.0826C21.713 47.2009 22.8943 48.3896 23.7542 49.807C23.6676 49.4426 23.4893 49.1121 23.3123 48.7842C23.2445 48.6585 23.1767 48.5328 23.114 48.4059C22.7901 47.7375 22.3294 47.1507 21.8711 46.5702C20.4877 44.904 18.8368 43.4766 17.0705 42.2302C16.2783 41.6434 15.4247 41.1533 14.571 40.6633C14.2898 40.5025 14.0098 40.3404 13.7311 40.177C13.6144 40.0916 13.4939 40.0124 13.3746 39.9333C13.3357 39.9069 13.2968 39.8817 13.2579 39.8554C16.2984 40.4773 19.3089 41.7414 21.5297 43.9679C21.4594 43.6777 21.4656 43.3799 21.4958 43.0871C21.4732 42.9753 21.3978 42.8898 21.325 42.8069C21.3175 42.7981 21.31 42.7893 21.3012 42.7793C21.2911 42.768 21.2824 42.7566 21.2723 42.7453C20.0621 41.4411 18.6699 40.3215 17.2111 39.3088C16.8232 39.021 16.4302 38.7383 16.036 38.4556C14.8623 37.6125 13.6859 36.7681 12.6415 35.7654C11.4438 34.6747 10.4621 33.3579 9.7101 31.923C9.5469 31.6239 9.39626 31.3173 9.24435 31.0095C8.85141 30.2091 8.45722 29.4087 7.84333 28.7528C6.74611 27.5604 5.49574 26.5049 4.1374 25.6253C4.90696 25.7585 5.65768 25.9809 6.40716 26.2021C6.69464 26.2862 6.98213 26.3717 7.27087 26.4521C6.94447 25.898 6.64694 25.3263 6.35066 24.7546C5.97404 24.027 5.59617 23.3008 5.15678 22.6084C5.03501 22.4237 4.87055 22.2667 4.66969 22.1712C3.96918 21.8168 3.17451 21.6949 2.39616 21.6824C2.94979 22.2616 3.43312 22.9025 3.91519 23.5408C3.98298 23.6312 4.05078 23.7204 4.11857 23.8109C2.89958 23.5986 1.66301 23.5219 0.428955 23.4629C1.85006 24.0936 3.14187 25.0473 4.08844 26.29C2.91715 26.0827 1.71699 25.9721 0.538175 26.1857C0.74406 26.3051 0.957477 26.4094 1.17215 26.5137C1.46215 26.6557 1.75214 26.7964 2.02205 26.9736C2.184 27.0753 2.34595 27.1771 2.50915 27.2789C3.51095 27.9046 4.52029 28.5342 5.38024 29.3484C4.43744 30.3109 3.521 31.311 2.81295 32.4633C3.07031 32.5085 3.33018 32.5424 3.59004 32.5764C3.96164 32.6254 4.3345 32.6731 4.70107 32.756C4.60064 32.9847 4.45752 33.1883 4.31566 33.3918C4.23908 33.5012 4.16251 33.6105 4.0922 33.7236C3.53857 34.5466 3.06529 35.4224 2.6736 36.3333C3.91519 35.4726 5.27479 34.676 6.79633 34.4674C6.69464 34.5993 6.58793 34.7263 6.48122 34.8532C6.39711 34.9524 6.313 35.053 6.2314 35.1547C5.0438 36.611 4.23406 38.3274 3.5574 40.069C5.23462 38.6064 7.301 37.5283 9.50799 37.1727C8.59908 38.4795 7.94376 39.9395 7.29221 41.3883V41.3896C7.23321 41.5215 7.17295 41.6534 7.11394 41.7854C6.08201 44.2506 5.30366 46.8064 4.52657 49.3609C4.20896 50.4025 3.8926 51.4455 3.55866 52.4808C4.57176 50.6865 5.92006 49.1134 7.25455 47.554L7.29974 47.5012C8.58527 46.0965 9.96244 44.7269 11.6246 43.7769C11.4965 44.1175 11.3258 44.4379 11.1551 44.7595C11.032 44.992 10.9078 45.2257 10.7998 45.4657C10.3805 46.3088 10.0491 47.1896 9.71764 48.0692C9.61093 48.3519 9.50548 48.6346 9.39626 48.9148C10.2185 47.8531 11.2316 46.9609 12.2736 46.1229C13.5328 45.1453 14.8874 44.2418 16.4039 43.7166C16.5395 43.8624 16.6763 44.0094 16.8119 44.1551C18.3912 45.8514 19.9705 47.549 21.443 49.3408C23.881 52.2936 26.2952 55.3168 28.0389 58.7445C28.0226 58.7056 28.005 58.6666 27.9887 58.6277C27.8242 58.2432 27.6598 57.8587 27.4677 57.488L27.474 57.4893Z" fill="#FFB300"/>
<path fill-rule="evenodd" clip-rule="evenodd" d="M26.8274 36.9428C27.5932 36.792 28.374 36.5369 28.9829 36.033C29.5654 35.5405 29.5591 34.7212 29.5541 34.0075C29.5541 33.9409 29.5541 33.8756 29.5541 33.8115L29.4223 33.8417C29.239 34.4008 29.0105 34.9499 28.6954 35.4488C28.2422 36.1273 27.5417 36.5821 26.8274 36.944V36.9428Z" fill="#FFB300"/>
<path fill-rule="evenodd" clip-rule="evenodd" d="M33.4322 36.3271H33.4347C33.977 36.6198 34.5608 36.851 35.1709 36.944C35.1119 36.9088 35.0516 36.8724 34.9914 36.8372C34.3787 36.4716 33.7535 36.0984 33.3229 35.5166C33.048 35.1748 32.8647 34.779 32.6814 34.3832C32.5823 34.1684 32.4831 33.9535 32.3688 33.7474C32.3048 34.3016 32.3726 34.8733 32.5208 35.4111C32.6388 35.8584 33.0593 36.1072 33.4322 36.3271Z" fill="#FFB300"/>
<path d="M76.3277 28.7217C76.2951 28.4075 76.4758 27.9954 76.8525 28.0633C77.4061 27.9766 78.0677 28.209 78.256 28.782C78.3803 29.9392 78.1932 31.1191 78.3527 32.2726C80.8145 32.3078 83.2763 32.2738 85.7369 32.2902C86.0081 32.2814 86.3194 32.3316 86.5366 32.1268C88.1171 30.9218 89.6701 29.6779 91.2531 28.4741C91.8319 28.0595 92.5713 28.0281 93.2567 28.067C93.553 28.062 93.9008 28.2681 93.833 28.6086C93.8982 28.978 93.5216 29.1677 93.2818 29.365C91.6436 30.6102 90.0291 31.8881 88.3958 33.1396C88.2075 33.2238 88.2276 33.4914 88.4122 33.5693C90.0567 34.8422 91.6975 36.1238 93.3597 37.3753C93.5091 37.4909 93.6534 37.6153 93.7765 37.7573C93.9095 38.0526 93.8606 38.5225 93.4752 38.5816C93.0157 38.6607 92.5361 38.6431 92.0754 38.569C91.39 38.4597 90.9004 37.9269 90.3643 37.5361C89.1955 36.6101 87.9941 35.728 86.8304 34.7944C86.5529 34.5733 86.2353 34.3408 85.8612 34.3672C83.4747 34.371 81.0882 34.3647 78.6992 34.3697C78.536 34.3697 78.2686 34.4438 78.2987 34.6587C78.2635 35.7167 78.3313 36.7772 78.2673 37.8327C78.0991 38.6268 77.0835 38.7638 76.4357 38.5326C76.3842 38.3139 76.3101 38.0965 76.324 37.8691C76.329 34.8221 76.3252 31.7725 76.3252 28.7229L76.3277 28.7217Z" fill="#191919"/>
<path d="M101.859 28.2216C102.286 28.1437 102.711 28.0419 103.149 28.0583C105.658 28.0658 108.168 28.052 110.677 28.0645C112.909 28.15 114.988 29.8387 115.416 32.0515C115.484 32.8745 115.476 33.705 115.427 34.5293C115.067 36.786 112.934 38.5552 110.668 38.6092C108.078 38.6268 105.487 38.623 102.896 38.6092C101.399 38.5828 99.9606 37.8289 99.0592 36.6403C98.2595 35.6803 97.9419 34.4012 98.0122 33.1685C97.9281 30.8879 99.6429 28.7154 101.857 28.2216H101.859ZM101.955 30.3414C101.181 30.6077 100.5 31.1945 100.198 31.9635C99.8953 32.5679 99.9944 33.2602 99.9919 33.9124C100.089 35.3021 101.385 36.5033 102.783 36.4631C105.288 36.4757 107.794 36.4631 110.3 36.4681C110.81 36.4618 111.341 36.487 111.813 36.2633C112.81 35.8662 113.518 34.8573 113.56 33.7867C113.573 33.2389 113.609 32.6697 113.415 32.147C113.059 31.0488 111.96 30.1969 110.792 30.2371C108.162 30.2308 105.533 30.2345 102.903 30.2371C102.587 30.2521 102.253 30.2157 101.954 30.3426L101.955 30.3414Z" fill="#191919"/>
<path d="M120.165 28.2204C120.503 27.9955 120.92 28.0696 121.301 28.0596C121.757 28.0508 122.209 28.1915 122.602 28.4189C126.667 31.1041 130.732 33.7905 134.802 36.4682C134.944 36.6378 135.255 36.5963 135.249 36.3463C135.269 33.8886 135.231 31.4296 135.266 28.9718C135.272 28.3247 136.013 27.9679 136.587 28.0583C136.856 28.0143 137.198 28.1588 137.152 28.4818C137.164 31.4848 137.154 34.4879 137.157 37.4922C137.213 38.0074 136.827 38.5226 136.307 38.5829C135.57 38.6759 134.752 38.6721 134.118 38.2286C130.085 35.5622 126.047 32.9085 122.018 30.2371C121.903 30.1454 121.754 30.1303 121.615 30.1027C121.586 32.5667 121.61 35.032 121.604 37.496C121.63 37.927 121.336 38.3354 120.962 38.5238C120.576 38.6344 120.13 38.701 119.753 38.5314C119.594 38.3906 119.633 38.1745 119.626 37.9886C119.631 35.0659 119.626 32.1407 119.629 29.2181C119.608 28.8223 119.8 28.4026 120.165 28.2217V28.2204Z" fill="#191919"/>
<path d="M141.336 28.5999C141.287 28.3385 141.492 28.052 141.767 28.0646C145.588 28.0596 149.412 28.0646 153.233 28.0621C154.075 28.0257 154.928 28.1337 155.718 28.4378C157.425 29.1377 158.747 30.8126 158.859 32.6798C158.883 33.3746 158.91 34.0833 158.745 34.7631C158.24 36.9105 156.199 38.5929 153.982 38.6156C149.951 38.6294 145.918 38.6156 141.885 38.6218C141.636 38.6445 141.323 38.5238 141.346 38.2273C141.33 36.4581 141.347 34.689 141.337 32.9185C141.327 32.7263 141.36 32.5365 141.435 32.3594C142.087 32.1872 143.072 32.2438 143.261 33.0417C143.399 34.1713 143.243 35.3273 143.341 36.4632C146.925 36.4757 150.51 36.4732 154.093 36.4657C155.171 36.5059 156.19 35.8135 156.639 34.851C157.007 34.1386 156.888 33.3131 156.87 32.5441C156.696 31.608 156.013 30.7799 155.133 30.4193C154.731 30.2384 154.283 30.2095 153.851 30.1655C150.316 30.1592 146.782 30.1655 143.249 30.1655C142.826 30.1554 142.397 30.1994 141.981 30.1102C141.394 29.8652 141.278 29.1691 141.336 28.6024V28.5999Z" fill="#191919"/>
<path d="M167.378 28.1198C167.605 28.0721 167.839 28.057 168.072 28.057C170.539 28.0595 173.006 28.0595 175.473 28.0583C176.615 28.1073 177.781 28.4566 178.646 29.2318C179.932 30.2421 180.614 31.912 180.491 33.5354C180.587 36.149 178.297 38.5527 175.687 38.6004C173.109 38.6331 170.528 38.6117 167.947 38.6117C165.894 38.6029 163.938 37.212 163.265 35.2707C162.984 34.6474 163.054 33.9538 163.038 33.2891C163.057 32.6973 162.989 32.0779 163.23 31.5174C163.804 29.7131 165.501 28.3322 167.378 28.1198ZM166.999 30.3112C166.121 30.57 165.384 31.2523 165.089 32.1218C164.871 32.6483 164.939 33.2326 164.938 33.788C164.981 35.2154 166.266 36.497 167.707 36.4606C170.377 36.4719 173.047 36.4694 175.718 36.4606C177.203 36.5058 178.569 35.1475 178.513 33.6573C178.5 33.1409 178.572 32.5968 178.363 32.108C177.985 31.0249 176.889 30.1755 175.72 30.2345C173.09 30.2295 170.461 30.232 167.831 30.2345C167.552 30.2471 167.265 30.222 166.999 30.3125V30.3112Z" fill="#191919"/>
<path d="M184.689 28.2153C184.863 28.1273 185.039 28.0243 185.246 28.0532C189.439 28.0595 193.632 28.0545 197.826 28.0557C198.787 28.0356 199.834 28.0092 200.659 28.5834C201.967 29.4102 202.591 31.246 201.9 32.6621C201.363 33.8093 200.045 34.4614 198.807 34.3596C198.532 34.3961 198.167 34.2415 197.985 34.5192C199.28 35.6023 200.674 36.5673 201.972 37.6492C202.347 37.9068 202.173 38.5087 201.748 38.5891C201.32 38.6444 200.877 38.6356 200.449 38.5815C199.849 38.5036 199.393 38.0789 198.932 37.7284C197.79 36.8576 196.661 35.9692 195.524 35.0909C195.119 34.7705 194.672 34.4225 194.127 34.4313C191.649 34.4011 189.17 34.435 186.692 34.4149C186.524 35.6099 186.812 36.845 186.519 38.0236C186.175 38.6682 185.321 38.7172 184.702 38.5087C184.635 36.8475 184.687 35.1827 184.674 33.5216C184.613 32.9398 185.151 32.3957 185.736 32.4623C190.221 32.4573 194.705 32.4623 199.191 32.4598C199.661 32.4573 200.028 32.0753 200.225 31.677C200.336 31.1379 200.033 30.5914 199.593 30.2961C199.286 30.0975 198.91 30.1641 198.568 30.1528C194.292 30.1528 190.018 30.1566 185.742 30.1528C185.266 30.2157 184.876 29.8651 184.711 29.4479C184.635 29.0408 184.675 28.6237 184.689 28.2128V28.2153Z" fill="#191919"/>
<path d="M156.401 53.223C155.914 53.223 155.449 53.1502 155.004 53.0029C154.559 52.8506 154.209 52.6559 153.954 52.4172L154.292 51.7046C154.536 51.9179 154.845 52.0939 155.224 52.2344C155.601 52.3749 155.993 52.4443 156.401 52.4443C156.773 52.4443 157.074 52.402 157.306 52.3157C157.538 52.2294 157.707 52.1142 157.817 51.9687C157.927 51.8163 157.981 51.6454 157.981 51.4575C157.981 51.2374 157.908 51.0614 157.762 50.9277C157.622 50.7939 157.436 50.6873 157.204 50.6077C156.979 50.5231 156.731 50.4486 156.457 50.3877C156.183 50.3267 155.906 50.2573 155.625 50.1778C155.351 50.0931 155.099 49.9865 154.867 49.8579C154.642 49.7292 154.46 49.5599 154.319 49.3467C154.179 49.1266 154.109 48.8473 154.109 48.5054C154.109 48.1635 154.194 47.874 154.365 47.5998C154.541 47.3188 154.81 47.097 155.168 46.9328C155.533 46.7619 155.997 46.6772 156.557 46.6772C156.929 46.6772 157.296 46.7263 157.661 46.8228C158.026 46.921 158.344 47.0598 158.611 47.2426L158.31 47.9739C158.036 47.7911 157.747 47.6607 157.443 47.5812C157.138 47.4965 156.842 47.4525 156.557 47.4525C156.198 47.4525 155.902 47.4982 155.67 47.5896C155.439 47.681 155.27 47.8029 155.16 47.9552C155.057 48.1076 155.004 48.2786 155.004 48.4664C155.004 48.6916 155.073 48.871 155.214 49.0064C155.361 49.1401 155.545 49.2468 155.772 49.3263C156.002 49.4059 156.256 49.4787 156.53 49.5464C156.804 49.6073 157.078 49.6767 157.351 49.7563C157.631 49.8359 157.884 49.9391 158.109 50.0678C158.341 50.1964 158.527 50.3657 158.666 50.579C158.806 50.7922 158.877 51.0665 158.877 51.4016C158.877 51.7368 158.787 52.0262 158.611 52.3072C158.436 52.5814 158.162 52.8032 157.79 52.9741C157.424 53.1383 156.961 53.2213 156.401 53.2213V53.223Z" fill="#FFB200"/>
<path d="M149.252 49.5109H152.54V50.2879H149.252V49.5109ZM149.334 52.353H153.061V53.1486H148.42V46.7501H152.933V47.5457H149.334V52.353Z" fill="#FFB200"/>
<path d="M144.679 53.2231C144.192 53.2231 143.742 53.1436 143.328 52.9861C142.92 52.8219 142.564 52.5934 142.259 52.3006C141.962 52.0027 141.726 51.654 141.556 51.2579C141.387 50.8618 141.3 50.4267 141.3 49.9511C141.3 49.4754 141.387 49.0404 141.556 48.6443C141.726 48.2482 141.965 47.9046 142.269 47.6118C142.574 47.3138 142.929 47.0853 143.337 46.9262C143.751 46.762 144.202 46.6791 144.689 46.6791C145.177 46.6791 145.635 46.7637 146.049 46.9347C146.47 47.0989 146.825 47.346 147.118 47.6744L146.524 48.2499C146.281 47.9943 146.007 47.8047 145.703 47.6829C145.398 47.5542 145.072 47.4916 144.725 47.4916C144.378 47.4916 144.032 47.5525 143.72 47.6744C143.416 47.7963 143.152 47.9672 142.926 48.1856C142.701 48.404 142.525 48.6663 142.396 48.971C142.274 49.2689 142.214 49.5956 142.214 49.9494C142.214 50.3032 142.274 50.6316 142.396 50.9363C142.525 51.2342 142.701 51.4932 142.926 51.7132C143.152 51.9333 143.416 52.1025 143.72 52.2244C144.032 52.3463 144.366 52.4072 144.725 52.4072C145.084 52.4072 145.398 52.3463 145.703 52.2244C146.007 52.0958 146.281 51.9011 146.524 51.6387L147.118 52.2143C146.825 52.5426 146.47 52.7932 146.049 52.9641C145.635 53.1351 145.178 53.2197 144.679 53.2197V53.2231Z" fill="#FFB200"/>
<path d="M138.995 53.1486V46.7501H139.908V53.1486H138.995Z" fill="#FFB200"/>
<path d="M134.473 53.1486L131.66 46.7501H132.646L135.231 52.6543H134.664L137.267 46.7501H138.18L135.376 53.1486H134.471H134.473Z" fill="#FFB200"/>
<path d="M127.429 49.5109H130.717V50.2879H127.429V49.5109ZM127.512 52.353H131.238V53.1486H126.599V46.7501H131.109V47.5457H127.51V52.353H127.512Z" fill="#FFB200"/>
<path d="M119.054 53.1486V46.7501H121.748C122.43 46.7501 123.03 46.8838 123.548 47.153C124.072 47.4204 124.476 47.7962 124.762 48.2769C125.055 48.7577 125.2 49.3163 125.2 49.9494C125.2 50.5824 125.055 51.141 124.762 51.6218C124.476 52.1025 124.072 52.4783 123.548 52.7457C123.03 53.0132 122.43 53.1486 121.748 53.1486H119.054ZM119.967 52.353H121.694C122.224 52.353 122.68 52.2531 123.064 52.0517C123.453 51.8503 123.756 51.571 123.969 51.2104C124.182 50.8448 124.288 50.425 124.288 49.9494C124.288 49.4737 124.182 49.0471 123.969 48.6883C123.756 48.3294 123.455 48.0484 123.064 47.847C122.68 47.6456 122.224 47.5457 121.694 47.5457H119.967V52.353Z" fill="#FFB200"/>
<path d="M112.431 53.2231C111.938 53.2231 111.484 53.1436 111.07 52.9861C110.656 52.8219 110.297 52.5934 109.993 52.3006C109.688 52.0027 109.452 51.654 109.281 51.2579C109.11 50.8618 109.025 50.4267 109.025 49.9511C109.025 49.4754 109.11 49.0404 109.281 48.6443C109.452 48.2482 109.688 47.9046 109.993 47.6118C110.304 47.3138 110.666 47.0853 111.08 46.9262C111.495 46.762 111.951 46.6791 112.45 46.6791C112.949 46.6791 113.417 46.762 113.839 46.9262C114.258 47.0904 114.615 47.3375 114.907 47.6659L114.341 48.233C114.079 47.9774 113.793 47.7912 113.482 47.6761C113.177 47.5542 112.846 47.4933 112.486 47.4933C112.125 47.4933 111.779 47.5542 111.462 47.6761C111.151 47.798 110.881 47.9689 110.649 48.1873C110.424 48.4056 110.246 48.668 110.12 48.9727C109.998 49.2706 109.937 49.5973 109.937 49.9511C109.937 50.3049 109.998 50.6248 110.12 50.9295C110.248 51.2274 110.424 51.4898 110.649 51.7149C110.881 51.935 111.151 52.1042 111.462 52.2261C111.774 52.348 112.11 52.4089 112.475 52.4089C112.817 52.4089 113.142 52.3564 113.453 52.2532C113.769 52.1432 114.062 51.9637 114.329 51.7132L114.85 52.4072C114.534 52.6747 114.162 52.8795 113.735 53.02C113.316 53.1537 112.88 53.2214 112.43 53.2214L112.431 53.2231ZM113.976 52.2904V49.9139H114.852V52.4089L113.976 52.2904Z" fill="#FFB200"/>
<path d="M102.135 53.1486V46.7501H102.884L107.112 52.006H106.72V46.7501H107.633V53.1486H106.884L102.656 47.8927H103.049V53.1486H102.135Z" fill="#FFB200"/>
<path d="M99.3093 53.1486V46.7501H100.223V53.1486H99.3093Z" fill="#FFB200"/>
<path d="M90.5879 53.1486V46.7501H91.3371L94.2054 51.5862H93.8029L96.634 46.7501H97.3832L97.3916 53.1486H96.5156L96.5071 48.1314H96.7168L94.1969 52.3716H93.7775L91.239 48.1314H91.4673V53.1486H90.5913H90.5879Z" fill="#FFB200"/>
<path d="M82.9297 53.1486L85.825 46.7501H86.7298L89.6336 53.1486H88.6747L86.0906 47.263H86.4559L83.8717 53.1486H82.9314H82.9297ZM84.1626 51.549L84.4095 50.8177H88.0067L88.2722 51.549H84.1626Z" fill="#FFB200"/>
<path d="M79.7301 53.2231C79.2362 53.2231 78.783 53.1436 78.3686 52.9861C77.9543 52.8219 77.5958 52.5934 77.2913 52.3006C76.9869 52.0027 76.7502 51.654 76.5793 51.2579C76.4085 50.8618 76.324 50.4267 76.324 49.9511C76.324 49.4754 76.4085 49.0404 76.5793 48.6443C76.7502 48.2482 76.9869 47.9046 77.2913 47.6118C77.6025 47.3138 77.9644 47.0853 78.3788 46.9262C78.7931 46.762 79.2498 46.6791 79.7487 46.6791C80.2476 46.6791 80.716 46.762 81.1371 46.9262C81.5566 47.0904 81.9134 47.3375 82.206 47.6659L81.6394 48.233C81.3773 47.9774 81.0915 47.7912 80.7803 47.6761C80.4759 47.5542 80.1444 47.4933 79.7842 47.4933C79.424 47.4933 79.0773 47.5542 78.761 47.6761C78.4498 47.798 78.1792 47.9689 77.9475 48.1873C77.7226 48.4056 77.545 48.668 77.4182 48.9727C77.2964 49.2706 77.2355 49.5973 77.2355 49.9511C77.2355 50.3049 77.2964 50.6248 77.4182 50.9295C77.5467 51.2274 77.7226 51.4898 77.9475 51.7149C78.1792 51.935 78.4498 52.1042 78.761 52.2261C79.0722 52.348 79.4087 52.4089 79.774 52.4089C80.1157 52.4089 80.4404 52.3564 80.7516 52.2532C81.0678 52.1432 81.3604 51.9637 81.6276 51.7132L82.1485 52.4072C81.8322 52.6747 81.4602 52.8795 81.034 53.02C80.6146 53.1537 80.1782 53.2214 79.7284 53.2214L79.7301 53.2231ZM81.2724 52.2904V49.9139H82.1485V52.4089L81.2724 52.2904Z" fill="#FFB200"/>
</g>
<defs>
<clipPath id="clip0_894_138">
<rect width="202" height="81" fill="white" transform="translate(0.257568)"/>
</clipPath>
</defs>
</svg>
