<svg width="41" height="41" viewBox="0 0 41 41" fill="none" xmlns="http://www.w3.org/2000/svg">
<rect x="0.685059" y="0.38623" width="40" height="40" rx="11.4721" fill="white"/>
<g clip-path="url(#clip0_138_2633)">
<path d="M20.7746 21.4018C20.7284 21.3917 20.6808 21.3901 20.634 21.397C20.1645 21.3424 19.8103 20.9451 19.8095 20.4725C19.8095 20.3638 19.7663 20.2595 19.6894 20.1826C19.6125 20.1057 19.5082 20.0625 19.3994 20.0625C19.2906 20.0625 19.1863 20.1057 19.1094 20.1826C19.0325 20.2595 18.9893 20.3638 18.9893 20.4725C18.9906 21.2616 19.5183 21.9528 20.2792 22.1617V22.5717C20.2792 22.6805 20.3224 22.7848 20.3993 22.8617C20.4762 22.9386 20.5805 22.9818 20.6893 22.9818C20.798 22.9818 20.9023 22.9386 20.9792 22.8617C21.0562 22.7848 21.0994 22.6805 21.0994 22.5717V22.1865C21.9776 22.0027 22.5744 21.1847 22.4822 20.2923C22.3896 19.3999 21.6378 18.7217 20.7405 18.7215C20.2264 18.7215 19.8095 18.3046 19.8095 17.7905C19.8095 17.2763 20.2264 16.8594 20.7405 16.8594C21.2547 16.8594 21.6716 17.2762 21.6716 17.7905C21.6716 17.8992 21.7148 18.0035 21.7917 18.0804C21.8686 18.1573 21.9729 18.2005 22.0817 18.2005C22.1904 18.2005 22.2947 18.1573 22.3716 18.0804C22.4486 18.0035 22.4918 17.8992 22.4918 17.7905C22.4906 16.9619 21.9101 16.2473 21.0994 16.0763V15.703C21.0994 15.5943 21.0562 15.49 20.9792 15.4131C20.9023 15.3362 20.798 15.293 20.6893 15.293C20.5805 15.293 20.4762 15.3362 20.3993 15.4131C20.3224 15.49 20.2792 15.5943 20.2792 15.703V16.1013C19.433 16.3323 18.8884 17.1539 19.0049 18.0233C19.1214 18.8927 19.8633 19.5416 20.7405 19.5415C21.248 19.5415 21.6618 19.9477 21.671 20.4549C21.6804 20.9621 21.2816 21.3834 20.7746 21.4018Z" fill="#FFB300"/>
<path d="M14.7939 19.163C14.7939 22.4472 17.4562 25.1095 20.7404 25.1095C24.0246 25.1095 26.6869 22.4472 26.6869 19.163C26.6869 15.8788 24.0246 13.2166 20.7404 13.2166C17.4578 13.2201 14.7978 15.8804 14.7939 19.163ZM20.7404 14.0367C23.5716 14.0367 25.8667 16.3318 25.8667 19.163C25.8667 21.9943 23.5716 24.2893 20.7404 24.2893C17.9092 24.2893 15.6141 21.9943 15.6141 19.163C15.6173 16.3332 17.9105 14.0399 20.7404 14.0367Z" fill="#FFB300"/>
<path d="M28.7086 26.1203L25.4963 27.6381C25.2784 27.2328 24.9574 26.8921 24.5658 26.6505C24.1742 26.4088 23.7257 26.2747 23.2657 26.2617L20.3003 26.1802C19.8306 26.1668 19.37 26.0478 18.9526 25.8322L18.6508 25.6759C17.8896 25.2791 17.0437 25.0723 16.1853 25.0733C15.3268 25.0742 14.4814 25.2827 13.721 25.681L13.7398 24.9975C13.7413 24.9436 13.7321 24.89 13.7129 24.8397C13.6937 24.7894 13.6647 24.7433 13.6277 24.7042C13.5907 24.6651 13.5463 24.6337 13.4972 24.6117C13.448 24.5897 13.395 24.5776 13.3411 24.5762L10.0894 24.4867C10.0355 24.4852 9.98193 24.4944 9.93163 24.5136C9.88133 24.5328 9.83531 24.5618 9.7962 24.5988C9.7571 24.6358 9.72567 24.6802 9.70372 24.7294C9.68177 24.7785 9.66972 24.8316 9.66826 24.8854L9.47184 32.0211C9.47034 32.075 9.47946 32.1286 9.49869 32.1789C9.51791 32.2292 9.54686 32.2753 9.58389 32.3144C9.62091 32.3535 9.66529 32.385 9.71447 32.4069C9.76365 32.4289 9.81668 32.441 9.87053 32.4425L13.1223 32.532H13.1335C13.2403 32.532 13.343 32.4903 13.4196 32.4158C13.4962 32.3413 13.5406 32.2399 13.5435 32.1331L13.5529 31.7917L14.3977 31.3394C14.7291 31.1609 15.117 31.1185 15.4792 31.221L20.5238 32.6368C20.5326 32.6395 20.5414 32.6415 20.5505 32.6435C20.9151 32.7197 21.2866 32.758 21.6591 32.7578C22.448 32.7583 23.2277 32.5882 23.9447 32.2591C23.9624 32.251 23.9794 32.2416 23.9956 32.231L31.3098 27.5C31.3976 27.4432 31.4604 27.355 31.4853 27.2535C31.5103 27.1519 31.4956 27.0447 31.4441 26.9537C30.9011 25.9902 29.6967 25.6232 28.7086 26.1203ZM10.303 31.6339L10.4768 25.3178L12.9086 25.3847L12.7348 31.701L10.303 31.6339ZM23.5753 31.5266C22.6845 31.9286 21.6896 32.0396 20.732 31.844L15.701 30.4317C15.1349 30.2717 14.5288 30.338 14.0107 30.6165L13.579 30.8478L13.6945 26.6484C14.3661 26.2016 15.1453 25.9433 15.9508 25.9004C16.7562 25.8574 17.5585 26.0314 18.2738 26.4041L18.5755 26.5604C19.1029 26.8327 19.6846 26.983 20.2779 27.0002L23.2435 27.0817C24.0765 27.1057 24.7839 27.6988 24.9529 28.5149L20.5356 28.393C20.3091 28.3868 20.1207 28.5654 20.1143 28.7916C20.1113 28.9004 20.1516 29.0058 20.2264 29.0848C20.3012 29.1638 20.4043 29.2099 20.513 29.2129L25.3878 29.3471H25.3992C25.506 29.347 25.6085 29.3053 25.685 29.2308C25.7615 29.1563 25.806 29.0549 25.8089 28.9482C25.8139 28.77 25.8006 28.5917 25.7692 28.4162L29.064 26.8594C29.0672 26.858 29.0704 26.8564 29.0736 26.8548C29.3018 26.7393 29.5599 26.6964 29.8132 26.7319C30.0664 26.7674 30.3028 26.8795 30.4904 27.0532L23.5753 31.5266ZM21.1507 12.0636V8.16788C21.1507 8.05913 21.1075 7.95482 21.0306 7.87792C20.9537 7.80102 20.8494 7.75781 20.7406 7.75781C20.6319 7.75781 20.5276 7.80102 20.4507 7.87792C20.3738 7.95482 20.3306 8.05913 20.3306 8.16788V12.0636C20.3306 12.1723 20.3738 12.2766 20.4507 12.3535C20.5276 12.4304 20.6319 12.4736 20.7406 12.4736C20.8494 12.4736 20.9537 12.4304 21.0306 12.3535C21.1075 12.2766 21.1507 12.1723 21.1507 12.0636ZM24.2262 12.0636V10.2182C24.2262 10.1095 24.183 10.0052 24.1061 9.92828C24.0292 9.85138 23.9249 9.80817 23.8162 9.80817C23.7074 9.80817 23.6031 9.85138 23.5262 9.92828C23.4493 10.0052 23.4061 10.1095 23.4061 10.2182V12.0636C23.4061 12.1723 23.4493 12.2766 23.5262 12.3535C23.6031 12.4304 23.7074 12.4736 23.8162 12.4736C23.9249 12.4736 24.0292 12.4304 24.1061 12.3535C24.183 12.2766 24.2262 12.1723 24.2262 12.0636ZM18.0752 12.0636V10.2182C18.0752 10.1095 18.0319 10.0052 17.955 9.92828C17.8781 9.85138 17.7738 9.80817 17.6651 9.80817C17.5563 9.80817 17.452 9.85138 17.3751 9.92828C17.2982 10.0052 17.255 10.1095 17.255 10.2182V12.0636C17.255 12.1723 17.2982 12.2766 17.3751 12.3535C17.452 12.4304 17.5563 12.4736 17.6651 12.4736C17.7738 12.4736 17.8781 12.4304 17.955 12.3535C18.0319 12.2766 18.0752 12.1723 18.0752 12.0636Z" fill="#FFB300"/>
</g>
<defs>
<clipPath id="clip0_138_2633">
<rect width="22" height="25" fill="white" transform="translate(9.68506 7.88623)"/>
</clipPath>
</defs>
</svg>
