<svg width="57" height="22" viewBox="0 0 57 22" fill="none" xmlns="http://www.w3.org/2000/svg">
<g clip-path="url(#clip0_1378_47)">
<mask id="mask0_1378_47" style="mask-type:alpha" maskUnits="userSpaceOnUse" x="0" y="3" width="25" height="16">
<path d="M22.2143 3H2.78571C1.52335 3 0.5 3.95513 0.5 5.13333V16.8667C0.5 18.0449 1.52335 19 2.78571 19H22.2143C23.4767 19 24.5 18.0449 24.5 16.8667V5.13333C24.5 3.95513 23.4767 3 22.2143 3Z" fill="white"/>
</mask>
<g mask="url(#mask0_1378_47)">
<path d="M22.2143 3H2.78571C1.52335 3 0.5 3.95513 0.5 5.13333V16.8667C0.5 18.0449 1.52335 19 2.78571 19H22.2143C23.4767 19 24.5 18.0449 24.5 16.8667V5.13333C24.5 3.95513 23.4767 3 22.2143 3Z" fill="#FDBD00"/>
<path fill-rule="evenodd" clip-rule="evenodd" d="M0.5 3H24.5V11.5333H0.5V3Z" fill="#0B70BC"/>
<path d="M22.2143 3.5332H2.7857C1.83892 3.5332 1.07141 4.24955 1.07141 5.1332V16.8665C1.07141 17.7502 1.83892 18.4665 2.7857 18.4665H22.2143C23.161 18.4665 23.9286 17.7502 23.9286 16.8665V5.1332C23.9286 4.24955 23.161 3.5332 22.2143 3.5332Z" stroke="black" stroke-opacity="0.1" stroke-width="1.14286"/>
</g>
</g>
<path d="M32.612 14.896V11.744H29.46V10.736H32.612V7.584H33.62V10.736H36.764V11.744H33.62V14.896H32.612ZM41.9348 17.232C41.3641 17.232 40.8388 17.1307 40.3588 16.928C39.8788 16.7253 39.4654 16.4373 39.1188 16.064C38.7721 15.6853 38.5188 15.2347 38.3588 14.712L39.4788 14.376C39.6708 14.9467 39.9854 15.3787 40.4228 15.672C40.8654 15.9653 41.3641 16.1067 41.9188 16.096C42.4308 16.0853 42.8708 15.9707 43.2388 15.752C43.6121 15.5333 43.8974 15.2293 44.0948 14.84C44.2921 14.4507 44.3908 14 44.3908 13.488C44.3908 12.704 44.1614 12.0747 43.7028 11.6C43.2494 11.12 42.6494 10.88 41.9028 10.88C41.6948 10.88 41.4761 10.9093 41.2468 10.968C41.0174 11.0213 40.8041 11.0987 40.6068 11.2L40.0148 10.264L44.4948 6.128L44.6868 6.608H38.8148V5.48H45.4708V6.624L41.5668 10.352L41.5508 9.888C42.3508 9.78667 43.0548 9.87733 43.6628 10.16C44.2708 10.4427 44.7454 10.8747 45.0868 11.456C45.4334 12.032 45.6068 12.7093 45.6068 13.488C45.6068 14.224 45.4468 14.8747 45.1268 15.44C44.8121 16 44.3774 16.44 43.8228 16.76C43.2681 17.0747 42.6388 17.232 41.9348 17.232ZM51.1945 17.24C50.4745 17.24 49.8372 17.096 49.2825 16.808C48.7332 16.52 48.3012 16.1173 47.9865 15.6C47.6772 15.0773 47.5225 14.4667 47.5225 13.768C47.5225 13.0533 47.6958 12.4187 48.0425 11.864C48.3892 11.304 48.9172 10.88 49.6265 10.592L49.6105 11.056C49.0185 10.8373 48.5678 10.48 48.2585 9.984C47.9492 9.488 47.7945 8.93867 47.7945 8.336C47.7945 7.696 47.9412 7.14667 48.2345 6.688C48.5278 6.224 48.9278 5.86666 49.4345 5.616C49.9465 5.36533 50.5332 5.24 51.1945 5.24C51.8558 5.24 52.4425 5.36533 52.9545 5.616C53.4665 5.86666 53.8692 6.224 54.1625 6.688C54.4558 7.14667 54.6025 7.696 54.6025 8.336C54.6025 8.93867 54.4532 9.48533 54.1545 9.976C53.8612 10.4667 53.4105 10.8267 52.8025 11.056L52.7625 10.592C53.4718 10.8747 54.0025 11.296 54.3545 11.856C54.7118 12.416 54.8905 13.0533 54.8905 13.768C54.8905 14.4667 54.7332 15.0773 54.4185 15.6C54.1038 16.1173 53.6692 16.52 53.1145 16.808C52.5598 17.096 51.9198 17.24 51.1945 17.24ZM51.1945 16.112C51.9198 16.112 52.5092 15.912 52.9625 15.512C53.4158 15.1067 53.6425 14.5253 53.6425 13.768C53.6425 13 53.4185 12.4187 52.9705 12.024C52.5225 11.624 51.9305 11.424 51.1945 11.424C50.4585 11.424 49.8692 11.624 49.4265 12.024C48.9838 12.4187 48.7625 13 48.7625 13.768C48.7625 14.5253 48.9865 15.1067 49.4345 15.512C49.8825 15.912 50.4692 16.112 51.1945 16.112ZM51.1945 10.288C51.8345 10.288 52.3545 10.1253 52.7545 9.8C53.1545 9.46933 53.3545 8.98133 53.3545 8.336C53.3545 7.69066 53.1545 7.208 52.7545 6.888C52.3545 6.56267 51.8345 6.4 51.1945 6.4C50.5545 6.4 50.0345 6.56267 49.6345 6.888C49.2398 7.208 49.0425 7.69066 49.0425 8.336C49.0425 8.98133 49.2398 9.46933 49.6345 9.8C50.0345 10.1253 50.5545 10.288 51.1945 10.288Z" fill="#040E2F"/>
<defs>
<clipPath id="clip0_1378_47">
<rect width="24" height="16" fill="white" transform="translate(0.5 3)"/>
</clipPath>
</defs>
</svg>
