<svg width="46" height="46" viewBox="0 0 46 46" fill="none" xmlns="http://www.w3.org/2000/svg">
<rect x="0.961914" y="0.501099" width="45" height="45" rx="12.9061" fill="white"/>
<path d="M36.7526 17.4628C36.2387 17.3663 35.7073 17.4702 35.2675 17.7531C34.8278 18.036 34.513 18.4765 34.3877 18.9842L33.2067 23.3841C32.8972 23.1793 32.5367 23.0649 32.1657 23.0538C31.7948 23.0426 31.428 23.1352 31.1068 23.3211L27.6879 25.3265C27.0119 25.7245 26.4512 26.2916 26.061 26.9721C25.6708 27.6526 25.4645 28.423 25.4625 29.2074V33.0013H24.4625C24.3299 33.0013 24.2027 33.0539 24.109 33.1477C24.0152 33.2415 23.9625 33.3686 23.9625 33.5012V37.5011C23.9625 37.6337 24.0152 37.7609 24.109 37.8547C24.2027 37.9484 24.3299 38.0011 24.4625 38.0011H33.4622C33.5948 38.0011 33.722 37.9484 33.8158 37.8547C33.9095 37.7609 33.9622 37.6337 33.9622 37.5011V33.5012C33.9622 33.3686 33.9095 33.2415 33.8158 33.1477C33.722 33.0539 33.5948 33.0013 33.4622 33.0013H32.4623V32.4213C32.4622 32.2049 32.509 31.9911 32.5993 31.7945C32.6897 31.5979 32.8215 31.4232 32.9857 31.2823L35.3172 29.2824C35.7001 28.955 35.9749 28.5191 36.1051 28.0324L38.2746 19.9367C38.3201 19.767 38.3428 19.5919 38.3421 19.4162C38.3396 18.9582 38.1806 18.5147 37.8915 18.1594C37.6025 17.8041 37.2006 17.5583 36.7526 17.4628ZM32.9622 37.0011H24.9625V34.0012H32.9622V37.0011ZM37.3091 19.6772L35.1392 27.7739C35.0613 28.066 34.8965 28.3276 34.6667 28.5239L32.3353 30.5238C32.0615 30.7585 31.8418 31.0495 31.6911 31.377C31.5404 31.7045 31.4624 32.0608 31.4623 32.4213V33.0013H26.4625V29.2074C26.4637 28.5974 26.6238 27.9982 26.927 27.4689C27.2301 26.9395 27.6659 26.4983 28.1914 26.1885L31.6063 24.1851C31.7584 24.0977 31.9308 24.0516 32.1063 24.0516C32.2919 24.0499 32.4741 24.1006 32.6322 24.1979C32.7902 24.2952 32.9176 24.4351 32.9997 24.6015C33.1091 24.8432 33.1229 25.1173 33.0384 25.3688C32.9539 25.6202 32.7774 25.8304 32.5443 25.957L29.7444 27.5704C29.6874 27.6033 29.6375 27.647 29.5975 27.6991C29.5575 27.7512 29.5281 27.8107 29.5111 27.8742C29.494 27.9376 29.4896 28.0038 29.4982 28.069C29.5067 28.1342 29.528 28.197 29.5609 28.2539C29.5937 28.3108 29.6374 28.3607 29.6895 28.4008C29.7416 28.4408 29.8011 28.4702 29.8646 28.4872C29.9281 28.5043 29.9943 28.5086 30.0594 28.5001C30.1246 28.4915 30.1874 28.4702 30.2443 28.4374L33.0442 26.824C33.4637 26.5902 33.7873 26.2161 33.9582 25.7674C34.1291 25.3187 34.1364 24.8241 33.9787 24.3705L35.3542 19.2457C35.4165 18.987 35.5738 18.7611 35.7949 18.613C36.0159 18.4648 36.2846 18.4051 36.5476 18.4457C36.7707 18.4932 36.9709 18.6153 37.1153 18.7918C37.2597 18.9683 37.3397 19.1887 37.3421 19.4167C37.3428 19.5046 37.3317 19.5922 37.3091 19.6772ZM22.4626 33.0013H21.4626V29.2074C21.461 28.4231 21.2551 27.6528 20.8653 26.9722C20.4756 26.2917 19.9153 25.7243 19.2397 25.326L15.8168 23.3181C15.4953 23.1327 15.1285 23.0406 14.7576 23.0521C14.3867 23.0636 14.0263 23.1782 13.7169 23.3831L12.5364 18.9832C12.4105 18.4757 12.0954 18.0355 11.6556 17.7527C11.2158 17.4698 10.6845 17.3658 10.1705 17.4618C9.9047 17.5179 9.65311 17.6276 9.43102 17.784C9.20893 17.9404 9.02098 18.1404 8.87861 18.3718C8.73625 18.6032 8.64244 18.8611 8.60288 19.1299C8.56333 19.3986 8.57887 19.6726 8.64855 19.9352L10.8185 28.0319C10.9484 28.5187 11.223 28.9546 11.606 29.2819L13.9374 31.2818C14.102 31.4225 14.2343 31.5973 14.325 31.794C14.4157 31.9907 14.4627 32.2047 14.4629 32.4213V33.0013H13.4629C13.3303 33.0013 13.2031 33.0539 13.1093 33.1477C13.0156 33.2415 12.9629 33.3686 12.9629 33.5012V37.5011C12.9629 37.6337 13.0156 37.7609 13.1093 37.8547C13.2031 37.9484 13.3303 38.0011 13.4629 38.0011H22.4626C22.5952 38.0011 22.7224 37.9484 22.8161 37.8547C22.9099 37.7609 22.9626 37.6337 22.9626 37.5011V33.5012C22.9626 33.3686 22.9099 33.2415 22.8161 33.1477C22.7224 33.0539 22.5952 33.0013 22.4626 33.0013ZM14.5899 30.5228L12.2584 28.5229C12.0284 28.3267 11.8636 28.0651 11.7859 27.7729L9.61602 19.6767C9.59348 19.5919 9.58239 19.5045 9.58302 19.4167C9.58443 19.1878 9.6641 18.9662 9.8088 18.7887C9.95349 18.6113 10.1545 18.4887 10.3785 18.4412C10.6415 18.401 10.91 18.4608 11.1309 18.6089C11.3519 18.757 11.5093 18.9827 11.572 19.2412L12.9474 24.3655C12.7896 24.8192 12.7968 25.3139 12.9678 25.7627C13.1387 26.2115 13.4623 26.5857 13.8819 26.8195L16.6818 28.4329C16.7968 28.4992 16.9333 28.5171 17.0615 28.4827C17.1897 28.4483 17.299 28.3644 17.3653 28.2494C17.4316 28.1345 17.4495 27.9979 17.4151 27.8697C17.3807 27.7415 17.2967 27.6322 17.1818 27.5659L14.3819 25.9525C14.1487 25.826 13.972 25.6159 13.8874 25.3644C13.8028 25.1129 13.8166 24.8388 13.9259 24.597C14.0086 24.4318 14.1361 24.2931 14.2938 24.1966C14.4515 24.1002 14.633 24.0499 14.8178 24.0516C14.9921 24.0512 15.1634 24.0963 15.3148 24.1826L18.7337 26.189C19.2592 26.4986 19.695 26.9398 19.9982 27.4691C20.3014 27.9983 20.4615 28.5974 20.4627 29.2074V33.0013H15.4628V32.4213C15.4629 32.0606 15.3849 31.7042 15.2342 31.3765C15.0835 31.0488 14.8637 30.7576 14.5899 30.5228ZM21.9626 37.0011H13.9629V34.0012H21.9626V37.0011ZM31.4623 14.8019V8.50207C31.4625 8.41422 31.4395 8.32788 31.3957 8.25173C31.3519 8.17559 31.2888 8.11233 31.2127 8.06833C31.1367 8.02433 31.0504 8.00114 30.9626 8.0011C30.8747 8.00106 30.7884 8.02416 30.7123 8.06808L29.9998 8.47507C29.2142 8.92513 28.3294 9.17385 27.4243 9.19907C26.5193 9.22428 25.622 9.0252 24.8125 8.61957L23.6821 8.05458C23.6127 8.01991 23.5361 8.00185 23.4586 8.00185C23.381 8.00185 23.3045 8.01991 23.2351 8.05458L22.1126 8.61757C21.303 9.0239 20.4054 9.2235 19.5 9.19855C18.5945 9.1736 17.7092 8.92487 16.9233 8.47457L16.2128 8.06808C16.1367 8.02416 16.0504 8.00106 15.9626 8.0011C15.8747 8.00114 15.7884 8.02433 15.7124 8.06833C15.6364 8.11233 15.5732 8.17559 15.5294 8.25173C15.4856 8.32788 15.4626 8.41422 15.4628 8.50207V14.8019C15.4604 17.0678 16.0751 19.2917 17.2409 21.2348C18.4067 23.1778 20.0796 24.7668 22.0801 25.831L23.2271 26.4425C23.2995 26.4812 23.3804 26.5014 23.4626 26.5014C23.5447 26.5014 23.6256 26.4812 23.6981 26.4425L24.845 25.831C26.8456 24.7668 28.5186 23.1779 29.6844 21.2348C30.8502 19.2918 31.4648 17.0679 31.4623 14.8019ZM23.4626 25.435L22.5511 24.9485C20.7106 23.9695 19.1714 22.5077 18.0988 20.7201C17.0262 18.9325 16.4606 16.8866 16.4628 14.8019V9.36354C17.3887 9.88632 18.429 10.1734 19.492 10.1996C20.555 10.2257 21.6081 9.99014 22.5586 9.51354L23.4586 9.06355L24.3655 9.51654C25.3164 9.9929 26.3698 10.2281 27.433 10.2014C28.4962 10.1747 29.5365 9.887 30.4623 9.36354V14.8019C30.4646 16.8866 29.8991 18.9326 28.8265 20.7202C27.7539 22.5079 26.2146 23.9696 24.374 24.9485L23.4626 25.435Z" fill="#191919"/>
<path d="M29.4625 11.519C29.4625 11.4443 29.4459 11.3706 29.4137 11.3033C29.3816 11.2359 29.3347 11.1766 29.2767 11.1297C29.2186 11.0828 29.1508 11.0495 29.0781 11.0323C29.0055 11.015 28.93 11.0142 28.857 11.03C27.1886 11.3856 25.4489 11.1666 23.9207 10.4085L23.6847 10.291C23.6149 10.2558 23.5378 10.2375 23.4597 10.2375C23.3816 10.2375 23.3045 10.2558 23.2347 10.291L23.0037 10.4065C21.4753 11.1657 19.735 11.3852 18.0659 11.0295C17.9931 11.0142 17.9178 11.0153 17.8455 11.0327C17.7732 11.0502 17.7057 11.0836 17.648 11.1304C17.5902 11.1773 17.5436 11.2364 17.5116 11.3035C17.4796 11.3707 17.4629 11.4441 17.4629 11.5185V14.8019C17.4608 16.7053 17.9771 18.5734 18.9564 20.2055C19.9358 21.8377 21.3412 23.1723 23.0217 24.0661L23.2272 24.1761C23.2996 24.2147 23.3804 24.2348 23.4625 24.2348C23.5445 24.2348 23.6253 24.2147 23.6977 24.1761L23.9037 24.0661C25.5842 23.1723 26.9896 21.8377 27.969 20.2055C28.9483 18.5734 29.4646 16.7053 29.4625 14.8019V11.519ZM28.4625 14.8019C28.4644 16.5183 28.0003 18.2031 27.1198 19.6765C26.2393 21.1499 24.9753 22.3567 23.4627 23.1681C21.9501 22.3567 20.6861 21.1499 19.8056 19.6765C18.9251 18.2031 18.461 16.5183 18.4629 14.8019V12.1155C20.1704 12.3524 21.9098 12.0689 23.4537 11.302L23.4627 11.297L23.4747 11.3035C25.0177 12.0701 26.756 12.3533 28.4625 12.1159V14.8019Z" fill="#191919"/>
<path d="M26.2909 13.9664L22.4625 17.7948L20.9015 16.2338C20.8072 16.1427 20.6809 16.0924 20.5498 16.0935C20.4187 16.0946 20.2933 16.1472 20.2006 16.2399C20.1079 16.3326 20.0554 16.458 20.0542 16.5891C20.0531 16.7202 20.1035 16.8465 20.1946 16.9408L22.109 18.8552C22.2027 18.949 22.3299 19.0016 22.4625 19.0016C22.5951 19.0016 22.7222 18.949 22.816 18.8552L26.9978 14.6734C27.0456 14.6273 27.0837 14.5721 27.1099 14.5111C27.1361 14.4501 27.1499 14.3845 27.1504 14.3181C27.151 14.2517 27.1384 14.1859 27.1132 14.1244C27.0881 14.063 27.051 14.0071 27.004 13.9602C26.9571 13.9133 26.9013 13.8761 26.8398 13.851C26.7784 13.8259 26.7125 13.8132 26.6461 13.8138C26.5798 13.8144 26.5141 13.8281 26.4531 13.8544C26.3921 13.8806 26.337 13.9186 26.2909 13.9664Z" fill="#191919"/>
</svg>
