<svg width="116" height="116" viewBox="0 0 116 116" fill="none" xmlns="http://www.w3.org/2000/svg">
<g clip-path="url(#clip0_8014_2535)">
<path d="M112.91 78.69L100.279 57.3589L112.781 36.8978C113.078 36.4102 113.24 35.8525 113.25 35.2818C113.261 34.711 113.12 34.1477 112.841 33.6495C112.563 33.1513 112.157 32.736 111.665 32.4462C111.173 32.1564 110.613 32.0024 110.042 32H9.44444C7.73527 32 6.0961 32.679 4.88753 33.8875C3.67897 35.0961 3 36.7353 3 38.4444L3 77.1111C3 78.8203 3.67897 80.4594 4.88753 81.668C6.0961 82.8766 7.73527 83.5556 9.44444 83.5556H110.139C110.708 83.5555 111.266 83.4048 111.758 83.119C112.25 82.8331 112.657 82.4222 112.938 81.928C113.22 81.4338 113.365 80.8739 113.36 80.3052C113.355 79.7365 113.2 79.1792 112.91 78.69ZM36.8656 68.0244H33.2567L22.7522 54.04V68.0567H19.1111V48.1111H22.7522L33.2889 62.1278V48.1111H36.8978L36.8656 68.0244ZM57.2622 51.3333H45.8878V56.1344H56.1989V59.3567H45.8878V64.5444H57.2622V67.7667H42.2467V48.1111H57.23L57.2622 51.3333ZM83.9744 67.96H80.3333L75.3389 53.17L70.3444 68.0244H66.7356L60.2911 48.1111H64.2222L68.4756 62.3856L73.3733 48.1111H77.3044L82.0089 62.3856L86.2944 48.1111H90.2578L83.9744 67.96Z" fill="url(#paint0_linear_8014_2535)"/>
</g>
<defs>
<linearGradient id="paint0_linear_8014_2535" x1="58.1803" y1="32" x2="58.1803" y2="83.5556" gradientUnits="userSpaceOnUse">
<stop stop-color="#FFB300"/>
<stop offset="1" stop-color="#FFE097"/>
</linearGradient>
<clipPath id="clip0_8014_2535">
<rect width="116" height="116" fill="white"/>
</clipPath>
</defs>
</svg>
