<svg width="20" height="21" viewBox="0 0 20 21" fill="none" xmlns="http://www.w3.org/2000/svg">
<g clip-path="url(#clip0_148_1129)">
<path d="M19.6938 2.94647C19.4497 2.64677 19.0833 2.48169 18.6621 2.48169C18.4348 2.48169 18.194 2.52927 17.9464 2.62306L1.01394 9.03853C0.11363 9.37972 -0.0075458 9.89329 0.000345121 10.169C0.00819697 10.4434 0.15707 10.9456 1.06328 11.2354L4.65423 12.5514L6.54676 16.8834C6.737 17.4826 7.13452 17.9029 7.64188 18.0393C7.75818 18.0705 7.8781 18.0863 7.99853 18.0862C8.41058 18.0862 8.83247 17.9047 9.19682 17.5625L10.7648 16.0894L14.5905 18.7226C14.935 18.9773 15.3099 19.1117 15.6755 19.1117C16.4175 19.1116 17.0093 18.5685 17.1831 17.7279L19.9524 4.33434C20.0662 3.78389 19.9744 3.29102 19.6938 2.94647ZM5.84431 12.348L10.7309 9.72758L7.32526 12.8515C7.26563 12.9064 7.21804 12.973 7.18551 13.0472C7.15298 13.1215 7.13621 13.2016 7.13627 13.2827C7.13604 13.2887 7.1353 13.2946 7.13526 13.3006L7.1235 15.2761L5.84431 12.348ZM8.39444 16.7083C8.36033 16.7405 8.32421 16.7705 8.28631 16.7981L8.30065 14.3933L9.77692 15.4094L8.39444 16.7083ZM18.8048 4.09702L16.0355 17.4906C16.0076 17.6256 15.9166 17.9398 15.6754 17.9398C15.5628 17.9398 15.4231 17.8818 15.2821 17.7765C15.276 17.772 15.2699 17.7676 15.2637 17.7633L11.046 14.8603L11.0443 14.8591L8.65965 13.2177L14.9589 7.43957C15.0641 7.34307 15.1305 7.21149 15.1455 7.06953C15.1605 6.92758 15.1233 6.78501 15.0406 6.6686C14.958 6.55219 14.8357 6.46995 14.6968 6.43732C14.5578 6.40468 14.4117 6.4239 14.2859 6.49137L5.04553 11.4466L1.4545 10.1307C1.45188 10.1297 1.44925 10.1288 1.44661 10.1278L18.3616 3.71896C18.5042 3.66494 18.6037 3.65361 18.6621 3.65361C18.691 3.65361 18.7609 3.65681 18.7851 3.6865C18.816 3.72451 18.855 3.85377 18.8048 4.09702Z" fill="#FFB300"/>
</g>
<defs>
<clipPath id="clip0_148_1129">
<rect width="20" height="20" fill="white" transform="translate(0 0.796631)"/>
</clipPath>
</defs>
</svg>
