<svg width="55" height="55" viewBox="0 0 55 55" fill="none" xmlns="http://www.w3.org/2000/svg">
<rect x="0.257568" y="0.5" width="54" height="54" rx="27" fill="#FFB300"/>
<rect x="0.257568" y="0.5" width="54" height="54" rx="27" fill="url(#paint0_linear_894_183)"/>
<path fill-rule="evenodd" clip-rule="evenodd" d="M27.2576 15.5C20.6306 15.5 15.2576 20.873 15.2576 27.5C15.2576 34.127 20.6306 39.5 27.2576 39.5C33.8846 39.5 39.2576 34.127 39.2576 27.5C39.2576 20.873 33.8846 15.5 27.2576 15.5ZM32.8196 23.661C32.6396 25.558 31.8576 30.163 31.4606 32.288C31.2926 33.188 30.9606 33.489 30.6406 33.518C29.9436 33.582 29.4146 33.057 28.7396 32.615C27.6836 31.923 27.0866 31.492 26.0616 30.816C24.8766 30.035 25.6446 29.606 26.3196 28.905C26.4966 28.721 29.5666 25.928 29.6266 25.675C29.6336 25.643 29.6416 25.525 29.5706 25.463C29.4996 25.401 29.3966 25.422 29.3226 25.439C29.2166 25.463 27.5296 26.578 24.2606 28.784C23.7816 29.113 23.3476 29.273 22.9586 29.265C22.5306 29.256 21.7066 29.023 21.0936 28.823C20.3426 28.579 19.7446 28.449 19.7966 28.035C19.8236 27.819 20.1206 27.598 20.6886 27.372C24.1866 25.848 26.5196 24.843 27.6866 24.357C31.0196 22.971 31.7116 22.73 32.1636 22.722C32.7296 22.714 32.8656 23.181 32.8196 23.661Z" fill="white"/>
<defs>
<linearGradient id="paint0_linear_894_183" x1="8.06861" y1="2.27999" x2="53.9399" y2="24.0714" gradientUnits="userSpaceOnUse">
<stop stop-color="#FFCC54"/>
<stop offset="1" stop-color="#FFB300"/>
</linearGradient>
</defs>
</svg>
