<svg width="41" height="41" viewBox="0 0 41 41" fill="none" xmlns="http://www.w3.org/2000/svg">
<rect x="0.685059" y="0.927002" width="40" height="40" rx="11.4721" fill="white"/>
<path d="M26.7739 19.1057C26.7739 15.7463 24.0396 13.0168 20.6851 13.0168C17.3306 13.0168 14.5962 15.7463 14.5962 19.1057C14.5962 22.4602 17.3257 25.1946 20.6851 25.1946C24.0444 25.1946 26.7739 22.4602 26.7739 19.1057ZM20.6851 24.4084C17.7603 24.4084 15.3774 22.0305 15.3774 19.1008C15.3774 16.1711 17.7603 13.7981 20.6851 13.7981C23.6099 13.7981 25.9927 16.176 25.9927 19.1057C25.9927 22.0354 23.6099 24.4084 20.6851 24.4084Z" fill="#FFB300"/>
<path d="M28.146 25.4046C28.3657 25.2923 28.561 25.1458 28.7124 24.9407C29.1079 24.3988 29.0151 23.6907 28.9272 23.0023C28.8687 22.5579 28.8101 22.0941 28.9126 21.7816C29.0054 21.4886 29.3179 21.1615 29.6157 20.849C30.0796 20.3607 30.6021 19.8089 30.6021 19.1107C30.6021 18.4124 30.0845 17.8509 29.6206 17.3626C29.3228 17.0452 29.0103 16.723 28.9175 16.43C28.8149 16.1175 28.8735 15.6536 28.9321 15.2093C29.02 14.5208 29.1079 13.8128 28.7173 13.2708C28.3218 12.724 27.6138 12.5921 26.9302 12.4603C26.4907 12.3773 26.0366 12.2943 25.7778 12.1038C25.519 11.9183 25.3042 11.5179 25.0942 11.1273C24.7769 10.5413 24.4106 9.87727 23.7612 9.66243C23.1362 9.45735 22.4966 9.76009 21.8765 10.0531C21.4614 10.2484 21.0366 10.4486 20.6948 10.4486C20.353 10.4486 19.9282 10.2484 19.5132 10.0531C18.8931 9.76009 18.2534 9.45735 17.6284 9.66243C16.9741 9.87239 16.6323 10.512 16.2954 11.1273C16.0854 11.513 15.8657 11.9183 15.6118 12.1038C15.3481 12.2943 14.8989 12.3822 14.4595 12.4603C13.7759 12.5872 13.0679 12.724 12.6724 13.2708C12.2769 13.8128 12.3696 14.5208 12.4575 15.2093C12.5161 15.6536 12.5747 16.1175 12.4722 16.43C12.3794 16.723 12.0669 17.0501 11.769 17.3626C11.3052 17.8509 10.7827 18.4027 10.7827 19.1009C10.7827 19.7991 11.3101 20.3509 11.769 20.8392C12.0669 21.1566 12.3794 21.4788 12.4722 21.7718C12.5747 22.0843 12.5161 22.5482 12.4575 22.9925C12.3696 23.681 12.2817 24.389 12.6724 24.931C12.8237 25.1361 13.019 25.2874 13.2388 25.3948L11.1099 29.0814C11.0317 29.2181 11.0415 29.389 11.1392 29.5159C11.2368 29.6429 11.3979 29.6966 11.5493 29.6575L14.6938 28.8128L15.5386 31.9573C15.5776 32.1087 15.7095 32.221 15.8657 32.2454C15.8853 32.2454 15.8999 32.2503 15.9146 32.2503C16.0513 32.2503 16.1831 32.1771 16.2515 32.055L18.2485 28.5931C18.6733 28.5443 19.103 28.3441 19.5181 28.1488C19.9331 27.9534 20.3579 27.7532 20.6997 27.7532C21.0415 27.7532 21.4663 27.9534 21.8813 28.1488C22.2964 28.3441 22.7261 28.5491 23.1509 28.5931L25.1479 32.055C25.2163 32.1771 25.3481 32.2503 25.4849 32.2503C25.4995 32.2503 25.519 32.2503 25.5337 32.2454C25.6899 32.2259 25.8169 32.1136 25.8608 31.9573L26.7056 28.8128L29.8501 29.6575C30.0015 29.6966 30.1626 29.6429 30.2603 29.5159C30.3579 29.389 30.3677 29.2181 30.2896 29.0814L28.146 25.4046ZM16.0317 30.8538L15.3335 28.2415C15.2798 28.0316 15.0649 27.9095 14.855 27.9632L12.2427 28.6614L13.981 25.6488C14.1323 25.6829 14.2886 25.7122 14.4448 25.7415C14.8843 25.8245 15.3384 25.9075 15.5972 26.098C15.856 26.2835 16.0708 26.6839 16.2808 27.0745C16.564 27.597 16.8813 28.1781 17.4087 28.4515L16.0317 30.8538ZM20.6851 26.9769C20.1675 26.9769 19.6597 27.2161 19.1714 27.4456C18.688 27.6751 18.1899 27.9095 17.8628 27.8021C17.5063 27.6849 17.2378 27.1868 16.9741 26.7083C16.7202 26.2445 16.4614 25.7659 16.061 25.473C15.6558 25.18 15.1138 25.0775 14.5913 24.9798C14.0591 24.8773 13.5073 24.7747 13.2876 24.4818C13.0776 24.1937 13.146 23.637 13.2144 23.1048C13.2827 22.5726 13.3511 22.0257 13.1948 21.5423C13.0435 21.0833 12.6724 20.6878 12.3159 20.3118C11.9351 19.9115 11.5396 19.4964 11.5396 19.1107C11.5396 18.7249 11.9351 18.3099 12.3159 17.9095C12.6772 17.5286 13.0483 17.138 13.1948 16.679C13.3511 16.1956 13.2827 15.6488 13.2144 15.1165C13.146 14.5794 13.0776 14.0277 13.2876 13.7396C13.5024 13.4417 14.0542 13.3392 14.5913 13.2415C15.1138 13.1439 15.6558 13.0413 16.061 12.7484C16.4614 12.4603 16.7202 11.9769 16.9741 11.513C17.2378 11.0296 17.5063 10.5365 17.8628 10.4193C18.1948 10.3118 18.6929 10.5462 19.1714 10.7757C19.6597 11.0052 20.1675 11.2445 20.6851 11.2445C21.2026 11.2445 21.7104 11.0052 22.1987 10.7757C22.6821 10.5462 23.1802 10.3118 23.5073 10.4193C23.8638 10.5365 24.1323 11.0345 24.396 11.513C24.6499 11.9769 24.9087 12.4554 25.3091 12.7484C25.7144 13.0413 26.2563 13.1439 26.7788 13.2415C27.311 13.3441 27.8628 13.4466 28.0825 13.7396C28.2925 14.0277 28.2241 14.5843 28.1558 15.1165C28.0874 15.6488 28.019 16.1956 28.1753 16.679C28.3267 17.138 28.6978 17.5335 29.0542 17.9095C29.4351 18.3099 29.8306 18.7249 29.8306 19.1107C29.8306 19.4964 29.4351 19.9115 29.0542 20.3118C28.6929 20.6927 28.3218 21.0833 28.1753 21.5423C28.019 22.0257 28.0874 22.5726 28.1558 23.1048C28.2241 23.6419 28.2925 24.1937 28.0825 24.4818C27.8677 24.7796 27.3159 24.8822 26.7788 24.9798C26.2563 25.0775 25.7144 25.18 25.3091 25.473C24.9087 25.7611 24.6499 26.2445 24.396 26.7083C24.1323 27.1917 23.8638 27.6849 23.5073 27.8021C23.1753 27.9095 22.6772 27.6751 22.1987 27.4456C21.7104 27.2161 21.2026 26.9769 20.6851 26.9769ZM26.5151 27.9632C26.3052 27.9095 26.0903 28.0316 26.0366 28.2415L25.3384 30.8538L23.9565 28.4613C24.479 28.1927 24.7866 27.6312 25.0845 27.0843C25.2944 26.6986 25.5142 26.2933 25.7681 26.1077C26.0317 25.9173 26.481 25.8294 26.9204 25.7513C27.0767 25.722 27.2329 25.6927 27.3843 25.6585L29.1226 28.6712L26.5151 27.9632Z" fill="#FFB300"/>
<path d="M24.3474 16.7131C24.196 16.5618 23.947 16.5618 23.7957 16.7131L19.8406 20.6682L17.5798 18.4075C17.4285 18.2561 17.1794 18.2561 17.0281 18.4075C16.8767 18.5588 16.8767 18.8079 17.0281 18.9592L19.5671 21.4983C19.6404 21.5715 19.738 21.6106 19.8455 21.6106C19.9529 21.6106 20.0505 21.5715 20.1238 21.4983L24.3474 17.2649C24.4988 17.1135 24.4988 16.8645 24.3474 16.7131Z" fill="#FFB300"/>
</svg>
