<svg width="46" height="46" viewBox="0 0 46 46" fill="none" xmlns="http://www.w3.org/2000/svg">
<rect x="0.961914" y="0.501099" width="45" height="45" rx="12.9061" fill="white"/>
<path d="M31.515 20.595C31.515 16.1465 27.8941 12.5321 23.4521 12.5321C19.01 12.5321 15.3892 16.1465 15.3892 20.595C15.3892 25.0371 19.0036 28.658 23.4521 28.658C27.9006 28.658 31.515 25.0371 31.515 20.595ZM23.4521 27.617C19.579 27.617 16.4237 24.4681 16.4237 20.5886C16.4237 16.7091 19.579 13.5667 23.4521 13.5667C27.3251 13.5667 30.4804 16.7155 30.4804 20.595C30.4804 24.4746 27.3251 27.617 23.4521 27.617Z" fill="#191919"/>
<path d="M33.3319 28.936C33.6229 28.7873 33.8815 28.5933 34.0819 28.3217C34.6057 27.604 34.4828 26.6665 34.3664 25.7548C34.2888 25.1664 34.2113 24.5521 34.347 24.1383C34.4699 23.7504 34.8837 23.3172 35.2781 22.9034C35.8924 22.2568 36.5842 21.5261 36.5842 20.6015C36.5842 19.6769 35.8988 18.9333 35.2846 18.2867C34.8902 17.8665 34.4764 17.4397 34.3535 17.0518C34.2177 16.6379 34.2953 16.0237 34.3729 15.4353C34.4893 14.5236 34.6057 13.5861 34.0884 12.8684C33.5647 12.1442 32.6271 11.9696 31.7219 11.795C31.14 11.6851 30.5387 11.5752 30.196 11.323C29.8533 11.0773 29.5688 10.5471 29.2907 10.0299C28.8705 9.25396 28.3855 8.3746 27.5256 8.0901C26.6979 7.81854 25.8509 8.21942 25.0298 8.60737C24.4802 8.866 23.9176 9.1311 23.465 9.1311C23.0124 9.1311 22.4499 8.866 21.9003 8.60737C21.0791 8.21942 20.2321 7.81854 19.4045 8.0901C18.538 8.36813 18.0854 9.21516 17.6393 10.0299C17.3613 10.5407 17.0703 11.0773 16.7341 11.323C16.3849 11.5752 15.7901 11.6916 15.2081 11.795C14.3029 11.9631 13.3654 12.1442 12.8416 12.8684C12.3179 13.5861 12.4408 14.5236 12.5571 15.4353C12.6347 16.0237 12.7123 16.6379 12.5765 17.0518C12.4537 17.4397 12.0399 17.8729 11.6455 18.2867C11.0312 18.9333 10.3394 19.664 10.3394 20.5886C10.3394 21.5132 11.0377 22.2438 11.6455 22.8904C12.0399 23.3107 12.4537 23.7374 12.5765 24.1254C12.7123 24.5392 12.6347 25.1535 12.5571 25.7419C12.4408 26.6535 12.3244 27.5911 12.8416 28.3088C13.0421 28.5804 13.3007 28.7808 13.5917 28.9231L10.7726 33.8048C10.6691 33.9858 10.682 34.2121 10.8114 34.3802C10.9407 34.5483 11.1541 34.6195 11.3545 34.5677L15.5185 33.4491L16.6371 37.6131C16.6888 37.8136 16.8634 37.9623 17.0703 37.9946C17.0962 37.9946 17.1156 38.0011 17.135 38.0011C17.316 38.0011 17.4906 37.9041 17.5811 37.7425L20.2256 33.1582C20.7882 33.0935 21.3572 32.8284 21.9068 32.5698C22.4563 32.3112 23.0189 32.0461 23.4715 32.0461C23.9241 32.0461 24.4866 32.3112 25.0362 32.5698C25.5858 32.8284 26.1548 33.1 26.7173 33.1582L29.3619 37.7425C29.4524 37.9041 29.627 38.0011 29.808 38.0011C29.8274 38.0011 29.8533 38.0011 29.8727 37.9946C30.0796 37.9688 30.2477 37.8201 30.3059 37.6131L31.4245 33.4491L35.5885 34.5677C35.7889 34.6195 36.0023 34.5483 36.1316 34.3802C36.2609 34.2121 36.2739 33.9858 36.1704 33.8048L33.3319 28.936ZM17.2901 36.1519L16.3655 32.6926C16.2944 32.4146 16.0099 32.253 15.7319 32.3241L12.2726 33.2487L14.5745 29.2593C14.7749 29.3045 14.9818 29.3433 15.1887 29.3821C15.7707 29.492 16.372 29.602 16.7147 29.8541C17.0574 30.0998 17.3419 30.63 17.6199 31.1473C17.9949 31.8391 18.4152 32.6086 19.1135 32.9707L17.2901 36.1519ZM23.4521 31.018C22.7667 31.018 22.0943 31.3348 21.4477 31.6387C20.8076 31.9426 20.148 32.253 19.7148 32.1107C19.2428 31.9555 18.8872 31.296 18.538 30.6624C18.2018 30.0481 17.8591 29.4145 17.3289 29.0265C16.7923 28.6386 16.0746 28.5028 15.3827 28.3735C14.6779 28.2377 13.9473 28.1019 13.6563 27.7139C13.3783 27.3325 13.4688 26.5954 13.5593 25.8906C13.6499 25.1858 13.7404 24.4616 13.5335 23.8215C13.333 23.2137 12.8416 22.69 12.3696 22.1921C11.8653 21.6619 11.3416 21.1123 11.3416 20.6015C11.3416 20.0907 11.8653 19.5411 12.3696 19.0109C12.8481 18.5066 13.3395 17.9893 13.5335 17.3815C13.7404 16.7414 13.6499 16.0172 13.5593 15.3125C13.4688 14.6012 13.3783 13.8706 13.6563 13.4891C13.9408 13.0947 14.6715 12.9589 15.3827 12.8296C16.0746 12.7003 16.7923 12.5645 17.3289 12.1765C17.8591 11.795 18.2018 11.1549 18.538 10.5407C18.8872 9.90054 19.2428 9.24749 19.7148 9.09231C20.1545 8.95006 20.814 9.26042 21.4477 9.56432C22.0943 9.86821 22.7667 10.185 23.4521 10.185C24.1375 10.185 24.8099 9.86821 25.4565 9.56432C26.0966 9.26042 26.7561 8.95006 27.1893 9.09231C27.6614 9.24749 28.017 9.90701 28.3661 10.5407C28.7024 11.1549 29.045 11.7886 29.5752 12.1765C30.1119 12.5645 30.8296 12.7003 31.5215 12.8296C32.2262 12.9653 32.9569 13.1011 33.2478 13.4891C33.5259 13.8706 33.4354 14.6077 33.3448 15.3125C33.2543 16.0172 33.1638 16.7414 33.3707 17.3815C33.5711 17.9893 34.0625 18.513 34.5345 19.0109C35.0389 19.5411 35.5626 20.0907 35.5626 20.6015C35.5626 21.1123 35.0389 21.6619 34.5345 22.1921C34.0561 22.6964 33.5647 23.2137 33.3707 23.8215C33.1638 24.4616 33.2543 25.1858 33.3448 25.8906C33.4354 26.6018 33.5259 27.3325 33.2478 27.7139C32.9633 28.1084 32.2327 28.2441 31.5215 28.3735C30.8296 28.5028 30.1119 28.6386 29.5752 29.0265C29.045 29.408 28.7024 30.0481 28.3661 30.6624C28.017 31.3025 27.6614 31.9555 27.1893 32.1107C26.7497 32.253 26.0902 31.9426 25.4565 31.6387C24.8099 31.3348 24.1375 31.018 23.4521 31.018ZM31.1723 32.3241C30.8943 32.253 30.6098 32.4146 30.5387 32.6926L29.614 36.1519L27.7842 32.9836C28.476 32.628 28.8834 31.8844 29.2778 31.1602C29.5558 30.6494 29.8468 30.1128 30.183 29.8671C30.5322 29.6149 31.127 29.4985 31.709 29.3951C31.9159 29.3563 32.1228 29.3175 32.3232 29.2722L34.6251 33.2616L31.1723 32.3241Z" fill="#191919"/>
<path d="M28.3021 17.4268C28.1017 17.2263 27.7719 17.2263 27.5715 17.4268L22.3341 22.6641L19.3404 19.6704C19.14 19.47 18.8102 19.47 18.6098 19.6704C18.4094 19.8709 18.4094 20.2006 18.6098 20.4011L21.972 23.7633C22.069 23.8603 22.1983 23.912 22.3406 23.912C22.4828 23.912 22.6122 23.8603 22.7091 23.7633L28.3021 18.1574C28.5025 17.957 28.5025 17.6272 28.3021 17.4268Z" fill="#191919"/>
</svg>
