<svg width="56" height="619" viewBox="0 0 56 619" fill="none" xmlns="http://www.w3.org/2000/svg">
<path d="M28.4973 13.7434V618.743" stroke="#FFB300" stroke-width="2" stroke-dasharray="7 7"/>
<rect x="0.496826" width="55.4868" height="55.4868" rx="27.7434" fill="#FFB300"/>
<rect x="0.496826" width="55.4868" height="55.4868" rx="27.7434" fill="url(#paint0_linear_53_4442)"/>
<g clip-path="url(#clip0_53_4442)">
<path d="M36.0802 26.5767C39.6187 26.5767 42.4968 23.6974 42.4968 20.1601C42.4968 16.6227 39.6187 13.7434 36.0802 13.7434C32.5417 13.7434 29.6635 16.6227 29.6635 20.1601C29.6635 23.6974 32.5417 26.5767 36.0802 26.5767ZM36.0802 14.9101C38.9747 14.9101 41.3302 17.2656 41.3302 20.1601C41.3302 23.0546 38.9747 25.4101 36.0802 25.4101C33.1857 25.4101 30.8302 23.0546 30.8302 20.1601C30.8302 17.2656 33.1857 14.9101 36.0802 14.9101ZM35.6672 20.5731C35.5575 20.4634 35.4968 20.3152 35.4968 20.1601V17.2434C35.4968 16.9214 35.7582 16.6601 36.0802 16.6601C36.4022 16.6601 36.6635 16.9214 36.6635 17.2434V19.9186L38.2432 21.4982C38.4707 21.7257 38.4707 22.0956 38.2432 22.3231C38.1288 22.4374 37.9795 22.4934 37.8302 22.4934C37.6808 22.4934 37.5315 22.4362 37.4172 22.3231L35.6672 20.5731ZM34.3302 37.0767C33.0433 37.0767 31.9968 38.1232 31.9968 39.4101C31.9968 40.6969 33.0433 41.7434 34.3302 41.7434C35.617 41.7434 36.6635 40.6969 36.6635 39.4101C36.6635 38.1232 35.617 37.0767 34.3302 37.0767ZM34.3302 40.5767C33.6873 40.5767 33.1635 40.0541 33.1635 39.4101C33.1635 38.7661 33.6873 38.2434 34.3302 38.2434C34.973 38.2434 35.4968 38.7661 35.4968 39.4101C35.4968 40.0541 34.973 40.5767 34.3302 40.5767ZM22.6635 37.0767C21.3767 37.0767 20.3302 38.1232 20.3302 39.4101C20.3302 40.6969 21.3767 41.7434 22.6635 41.7434C23.9503 41.7434 24.9968 40.6969 24.9968 39.4101C24.9968 38.1232 23.9503 37.0767 22.6635 37.0767ZM22.6635 40.5767C22.0207 40.5767 21.4968 40.0541 21.4968 39.4101C21.4968 38.7661 22.0207 38.2434 22.6635 38.2434C23.3063 38.2434 23.8302 38.7661 23.8302 39.4101C23.8302 40.0541 23.3063 40.5767 22.6635 40.5767ZM40.8227 28.6021C39.8893 30.2307 38.1428 31.2434 36.2657 31.2434H21.5202C21.8083 33.2396 23.5408 34.7434 25.5592 34.7434H37.2457C37.5677 34.7434 37.829 35.0047 37.829 35.3267C37.829 35.6487 37.5677 35.9101 37.2457 35.9101H25.5603C22.954 35.9101 20.7187 33.9629 20.3605 31.3811L18.2827 16.4186C18.1625 15.5587 17.417 14.9101 16.549 14.9101H15.0802C14.7582 14.9101 14.4968 14.6487 14.4968 14.3267C14.4968 14.0047 14.7582 13.7434 15.0802 13.7434H16.549C17.9957 13.7434 19.2382 14.8249 19.4377 16.2576L19.7363 18.4101H26.7468C27.0688 18.4101 27.3302 18.6714 27.3302 18.9934C27.3302 19.3154 27.0688 19.5767 26.7468 19.5767H19.8985L21.3568 30.0767H36.2668C37.7263 30.0767 39.0855 29.2892 39.8123 28.0211C39.971 27.7411 40.328 27.6466 40.608 27.8052C40.888 27.9639 40.9837 28.3209 40.8227 28.6021Z" fill="#191919"/>
</g>
<rect x="0.496826" y="157.487" width="55.4868" height="55.4868" rx="27.7434" fill="#FFB300"/>
<rect x="0.496826" y="157.487" width="55.4868" height="55.4868" rx="27.7434" fill="url(#paint1_linear_53_4442)"/>
<g clip-path="url(#clip1_53_4442)">
<path d="M42.0643 181.814L20.1636 171.512C19.1451 171.015 17.989 171.177 17.1466 171.937C16.3031 172.698 16.0208 173.832 16.4455 174.971L21.9148 185.232L16.512 195.567C16.1235 196.633 16.407 197.767 17.2528 198.525C17.772 198.992 18.4113 199.231 19.0611 199.231C19.4683 199.231 19.8778 199.138 20.2675 198.946L42.0678 188.654C43.4083 188.025 44.2413 186.713 44.2401 185.23C44.2401 183.748 43.4036 182.439 42.0643 181.814ZM17.5083 174.497C17.2411 173.769 17.5491 173.146 17.9271 172.805C18.1768 172.581 18.5443 172.398 18.9678 172.398C19.186 172.398 19.4181 172.447 19.6561 172.563C19.6585 172.563 19.662 172.566 19.6643 172.567L41.5685 182.871C42.3268 183.226 42.839 183.867 43.0105 184.647H22.924L17.5083 174.497ZM41.5696 187.599L19.7611 197.896C19.0646 198.236 18.4125 197.997 18.0333 197.657C17.6541 197.318 17.3438 196.695 17.5783 196.036L22.9275 185.812H43.0128C42.8448 186.595 42.3315 187.241 41.5696 187.598V187.599Z" fill="#191919"/>
</g>
<rect x="0.496826" y="314.974" width="55.4868" height="55.4868" rx="27.7434" fill="#FFB300"/>
<rect x="0.496826" y="314.974" width="55.4868" height="55.4868" rx="27.7434" fill="url(#paint2_linear_53_4442)"/>
<g clip-path="url(#clip2_53_4442)">
<path d="M14.4968 339.8C14.4968 339.478 14.7582 339.217 15.0802 339.217H20.9135C21.2355 339.217 21.4968 339.478 21.4968 339.8C21.4968 340.122 21.2355 340.384 20.9135 340.384H15.0802C14.7582 340.384 14.4968 340.122 14.4968 339.8ZM42.4968 340.967V346.8C42.4968 348.546 41.3955 350.039 39.8508 350.622C40.0562 351.07 40.1635 351.553 40.1635 352.05C40.1635 353.98 38.5932 355.55 36.6635 355.55C34.7338 355.55 33.1635 353.98 33.1635 352.05C33.1635 351.649 33.2335 351.256 33.3688 350.884H23.6248C23.7602 351.256 23.8302 351.649 23.8302 352.05C23.8302 353.98 22.2598 355.55 20.3302 355.55C18.4005 355.55 16.8302 353.98 16.8302 352.05C16.8302 351.553 16.9375 351.07 17.1428 350.622C15.5982 350.039 14.4968 348.546 14.4968 346.8V343.3C14.4968 342.978 14.7582 342.717 15.0802 342.717C15.4022 342.717 15.6635 342.978 15.6635 343.3V346.8C15.6635 348.408 16.9713 349.717 18.5802 349.717H33.1635V335.134C33.1635 332.882 31.3318 331.05 29.0802 331.05C28.7582 331.05 28.4968 330.789 28.4968 330.467C28.4968 330.145 28.7582 329.884 29.0802 329.884C31.9747 329.884 34.3302 332.239 34.3302 335.134V335.717H37.2468C40.1413 335.717 42.4968 338.073 42.4968 340.967ZM34.3302 336.884V342.717H41.3302V340.967C41.3302 338.715 39.4985 336.884 37.2468 336.884H34.3302ZM22.3403 350.884H18.5802C18.495 350.884 18.4098 350.88 18.3247 350.876C18.1088 351.236 17.9968 351.636 17.9968 352.05C17.9968 353.337 19.0433 354.384 20.3302 354.384C21.617 354.384 22.6635 353.337 22.6635 352.05C22.6635 351.64 22.5527 351.242 22.3403 350.884ZM38.669 350.876C38.585 350.881 38.4998 350.884 38.4135 350.884H34.6533C34.441 351.242 34.3302 351.64 34.3302 352.05C34.3302 353.337 35.3767 354.384 36.6635 354.384C37.9503 354.384 38.9968 353.337 38.9968 352.05C38.9968 351.636 38.8837 351.236 38.669 350.876ZM41.3302 346.8V343.884H34.3302V349.717H38.4135C40.0223 349.717 41.3302 348.408 41.3302 346.8ZM15.0802 331.05H25.5802C25.9022 331.05 26.1635 330.789 26.1635 330.467C26.1635 330.145 25.9022 329.884 25.5802 329.884H15.0802C14.7582 329.884 14.4968 330.145 14.4968 330.467C14.4968 330.789 14.7582 331.05 15.0802 331.05ZM15.0802 335.717H23.2468C23.5688 335.717 23.8302 335.456 23.8302 335.134C23.8302 334.812 23.5688 334.55 23.2468 334.55H15.0802C14.7582 334.55 14.4968 334.812 14.4968 335.134C14.4968 335.456 14.7582 335.717 15.0802 335.717Z" fill="#191919"/>
</g>
<rect x="0.496826" y="472.46" width="55.4868" height="55.4868" rx="27.7434" fill="#FFB300"/>
<rect x="0.496826" y="472.46" width="55.4868" height="55.4868" rx="27.7434" fill="url(#paint3_linear_53_4442)"/>
<g clip-path="url(#clip3_53_4442)">
<path d="M37.1488 504.988L34.1738 508.185C33.9545 508.421 33.5858 508.435 33.349 508.214C33.1133 507.995 33.1005 507.625 33.3198 507.389L36.275 504.215C36.8105 503.577 36.7942 502.593 36.2178 501.952C35.9063 501.604 35.4782 501.397 35.0138 501.373C34.553 501.361 34.1015 501.505 33.7538 501.816L30.0158 505.595C29.0358 506.586 28.4968 507.897 28.4968 509.288V513.621C28.4968 513.943 28.2355 514.204 27.9135 514.204C27.5915 514.204 27.3302 513.943 27.3302 513.621V509.288C27.3302 507.587 27.9893 505.984 29.1863 504.775L32.95 500.972C33.5567 500.427 34.301 500.155 35.078 500.209C35.855 500.251 36.5678 500.594 37.087 501.172C38.0483 502.244 38.0752 503.885 37.1488 504.988ZM39.5802 486.204H33.7468C32.138 486.204 30.8302 487.512 30.8302 489.121V498.454C30.8302 498.776 31.0915 499.037 31.4135 499.037C31.7355 499.037 31.9968 498.776 31.9968 498.454V489.121C31.9968 488.156 32.782 487.371 33.7468 487.371H39.5802C40.545 487.371 41.3302 488.156 41.3302 489.121V499.621C41.3302 500.253 40.9872 500.837 40.4342 501.149C40.1542 501.306 40.0538 501.661 40.2125 501.943C40.3198 502.134 40.517 502.241 40.7212 502.241C40.818 502.241 40.916 502.216 41.007 502.166C41.9263 501.651 42.4968 500.675 42.4968 499.622V489.121C42.4968 487.512 41.189 486.204 39.5802 486.204ZM24.4135 513.037H19.7468C17.4952 513.037 15.6635 511.206 15.6635 508.954V491.454C15.6635 489.202 17.4952 487.371 19.7468 487.371H29.0802C29.4022 487.371 29.6635 487.109 29.6635 486.787C29.6635 486.465 29.4022 486.204 29.0802 486.204H19.7468C16.8523 486.204 14.4968 488.559 14.4968 491.454V508.954C14.4968 511.848 16.8523 514.204 19.7468 514.204H24.4135C24.7355 514.204 24.9968 513.943 24.9968 513.621C24.9968 513.299 24.7355 513.037 24.4135 513.037ZM20.6802 492.037H27.9135C28.2355 492.037 28.4968 491.776 28.4968 491.454C28.4968 491.132 28.2355 490.871 27.9135 490.871H20.6802C19.8437 490.871 19.1635 491.551 19.1635 492.387V494.021C19.1635 494.857 19.8437 495.537 20.6802 495.537H27.9135C28.2355 495.537 28.4968 495.276 28.4968 494.954C28.4968 494.632 28.2355 494.371 27.9135 494.371H20.6802C20.4877 494.371 20.3302 494.213 20.3302 494.021V492.387C20.3302 492.195 20.4877 492.037 20.6802 492.037ZM20.9135 497.871H19.7468C19.4248 497.871 19.1635 498.132 19.1635 498.454C19.1635 498.776 19.4248 499.037 19.7468 499.037H20.9135C21.2355 499.037 21.4968 498.776 21.4968 498.454C21.4968 498.132 21.2355 497.871 20.9135 497.871ZM20.9135 501.371H19.7468C19.4248 501.371 19.1635 501.632 19.1635 501.954C19.1635 502.276 19.4248 502.537 19.7468 502.537H20.9135C21.2355 502.537 21.4968 502.276 21.4968 501.954C21.4968 501.632 21.2355 501.371 20.9135 501.371ZM25.5802 497.871H24.4135C24.0915 497.871 23.8302 498.132 23.8302 498.454C23.8302 498.776 24.0915 499.037 24.4135 499.037H25.5802C25.9022 499.037 26.1635 498.776 26.1635 498.454C26.1635 498.132 25.9022 497.871 25.5802 497.871ZM25.5802 501.371H24.4135C24.0915 501.371 23.8302 501.632 23.8302 501.954C23.8302 502.276 24.0915 502.537 24.4135 502.537H25.5802C25.9022 502.537 26.1635 502.276 26.1635 501.954C26.1635 501.632 25.9022 501.371 25.5802 501.371ZM20.9135 504.871H19.7468C19.4248 504.871 19.1635 505.132 19.1635 505.454C19.1635 505.776 19.4248 506.037 19.7468 506.037H20.9135C21.2355 506.037 21.4968 505.776 21.4968 505.454C21.4968 505.132 21.2355 504.871 20.9135 504.871ZM25.5802 504.871H24.4135C24.0915 504.871 23.8302 505.132 23.8302 505.454C23.8302 505.776 24.0915 506.037 24.4135 506.037H25.5802C25.9022 506.037 26.1635 505.776 26.1635 505.454C26.1635 505.132 25.9022 504.871 25.5802 504.871ZM20.9135 508.371H19.7468C19.4248 508.371 19.1635 508.632 19.1635 508.954C19.1635 509.276 19.4248 509.537 19.7468 509.537H20.9135C21.2355 509.537 21.4968 509.276 21.4968 508.954C21.4968 508.632 21.2355 508.371 20.9135 508.371ZM41.9135 503.704C41.5915 503.704 41.3302 503.965 41.3302 504.287V505.569C41.3302 507.247 40.7632 508.9 39.733 510.224L37.3705 513.262C37.1722 513.517 37.2177 513.883 37.4732 514.08C37.5793 514.163 37.7053 514.203 37.8313 514.203C38.004 514.203 38.1767 514.126 38.2922 513.978L40.6547 510.94C41.8435 509.412 42.498 507.505 42.498 505.568V504.286C42.498 503.964 42.2367 503.703 41.9147 503.703L41.9135 503.704Z" fill="#191919"/>
</g>
<defs>
<linearGradient id="paint0_linear_53_4442" x1="8.52293" y1="1.829" x2="55.6572" y2="24.2204" gradientUnits="userSpaceOnUse">
<stop stop-color="#FFCC54"/>
<stop offset="1" stop-color="#FFB300"/>
</linearGradient>
<linearGradient id="paint1_linear_53_4442" x1="8.52293" y1="159.316" x2="55.6572" y2="181.707" gradientUnits="userSpaceOnUse">
<stop stop-color="#FFCC54"/>
<stop offset="1" stop-color="#FFB300"/>
</linearGradient>
<linearGradient id="paint2_linear_53_4442" x1="8.52293" y1="316.803" x2="55.6572" y2="339.194" gradientUnits="userSpaceOnUse">
<stop stop-color="#FFCC54"/>
<stop offset="1" stop-color="#FFB300"/>
</linearGradient>
<linearGradient id="paint3_linear_53_4442" x1="8.52293" y1="474.289" x2="55.6572" y2="496.681" gradientUnits="userSpaceOnUse">
<stop stop-color="#FFCC54"/>
<stop offset="1" stop-color="#FFB300"/>
</linearGradient>
<clipPath id="clip0_53_4442">
<rect width="28" height="28" fill="white" transform="translate(14.4968 13.7434)"/>
</clipPath>
<clipPath id="clip1_53_4442">
<rect width="28" height="28" fill="white" transform="translate(16.2402 171.23)"/>
</clipPath>
<clipPath id="clip2_53_4442">
<rect width="28" height="28" fill="white" transform="translate(14.4968 328.717)"/>
</clipPath>
<clipPath id="clip3_53_4442">
<rect width="28" height="28" fill="white" transform="translate(14.4968 486.204)"/>
</clipPath>
</defs>
</svg>
